<?xml version="1.0" standalone="no"?>
<!DOCTYPE svg PUBLIC "-//W3C//DTD SVG 1.1//EN" "http://www.w3.org/Graphics/SVG/1.1/DTD/svg11.dtd" >
<svg>
<metadata>
Created by FontForge 20120731 at Wed Nov 20 19:13:13 2013
 By World Wide Web Server
a_StamperBroken *Arsenal Company (c) 1997* FAX: (095)924-3775; e-Mail: arsenal@itco.msk.su; Phone: (095)924-5811 (Design and Featuring W.Chufarofsky &#38; M.Slutsker)
</metadata>
<defs>
<font id="a_StamperBrk" horiz-adv-x="626" >
  <font-face 
    font-family="a_StamperBrk"
    font-weight="400"
    font-stretch="normal"
    units-per-em="1000"
    panose-1="4 4 9 5 13 8 2 2 4 4"
    ascent="800"
    descent="-200"
    x-height="731"
    cap-height="725"
    bbox="-36 -254 1143 947"
    underline-thickness="120"
    underline-position="-150"
    unicode-range="U+0020-2219"
  />
<missing-glyph horiz-adv-x="716" 
d="M40 0v839h636v-839h-636zM80 40h556v759h-556v-759z" />
    <glyph glyph-name=".notdef" horiz-adv-x="716" 
d="M40 0v839h636v-839h-636zM80 40h556v759h-556v-759z" />
    <glyph glyph-name="space" unicode=" " horiz-adv-x="254" 
 />
    <glyph glyph-name="exclam" unicode="!" horiz-adv-x="339" 
d="M82 104l-19 -23l100 113l98 -109l-98 -105zM164 218l-2 24l-23 107l-48 159l-40 108l116 114l129 -125l-52 -119l-47 -158z" />
    <glyph glyph-name="quotedbl" unicode="&#x22;" horiz-adv-x="362" 
d="M157 637l-5 -28l-43 -198l-38 15l-23 195l-22 51l77 49l41 -40zM314 618l17 5l-61 -200l-6 7l-44 194l-3 50l56 70l54 -43z" />
    <glyph glyph-name="numbersign" unicode="#" horiz-adv-x="783" 
d="M125 561l-1 -1l114 -19l41 168l153 17l-50 -173l99 7l63 156l144 16l-40 -200l98 28l-12 -144l-124 3l-30 -131l130 13l-50 -125l-102 7l-45 -181l-138 -14l37 197l-123 4l-45 -193l-130 -9l37 177l-134 15l45 120l106 -13l46 122l-139 7zM456 411l12 -5l-119 24
l-15 -141l98 8z" />
    <glyph glyph-name="dollar" unicode="$" 
d="M344 631l-16 -3l11 -161l-71 50l1 100l-47 -56l67 -92l93 -58l140 -81l46 -108l-52 -169l-188 -56l-4 -42l-8 -4l-33 8l1 30l-152 65l-70 102l72 99l102 -97l-39 -61l93 -57l-22 184l71 -37l-4 -134l84 60l-96 118l-123 43l-119 194l52 136l153 54l-3 59l21 31l22 -46
l13 -45l143 -39l39 -80l-67 -82l-93 57l48 65l-80 33z" />
    <glyph glyph-name="percent" unicode="%" horiz-adv-x="772" 
d="M216 472h-13l-5 -71l-114 31l-52 123l35 136l143 33l-14 -65l-7 -46l-19 -113zM239 416l-15 3l17 34l21 51l-2 109l-15 61l-21 53l145 -32l44 -128l-44 -134zM125 -26l-22 27l63 80l78 104l57 80l55 78l70 92l59 116l75 71l43 100l48 -6l-43 -69l-68 -111l-61 -98
l-53 -75l-70 -92l-80 -85l-39 -110l-62 -76zM545 28l-12 2l-2 -44l-129 35l-34 132l48 126l124 41l-13 -69l-1 -38l-17 -113zM554 -7h4l14 50l8 42l7 129l-22 48l-7 46l145 -35l35 -112l-40 -143z" />
    <glyph glyph-name="ampersand" unicode="&#x26;" horiz-adv-x="763" 
d="M640 273l-8 -25l-46 71l36 49l-35 43l65 46l35 -57zM215 392l-17 27l48 -71l-21 -26l8 -44l102 -159l21 -34l39 9l24 -60l-150 -58l-165 83l-66 149l39 105zM483 645l-6 3l9 83l109 -132l-95 -118l-7 34l42 89zM444 723v15l-3 -61l-46 -56l48 -65l44 -104l72 -134l45 -86
l62 -123l85 -63l-73 -45l-212 -15l-105 197l-88 180l-43 96l-39 91l55 122l170 75z" />
    <glyph glyph-name="quotesingle" unicode="'" horiz-adv-x="188" 
d="M158 637l-5 -28l-43 -198l-38 15l-23 195l-22 51l77 49l41 -40z" />
    <glyph glyph-name="parenleft" unicode="(" horiz-adv-x="459" 
d="M313 597l-5 -19l-4 -108l-2 -122l10 -98l-21 -110l68 -131l31 -43l-31 -50l-103 53l-86 89l-58 117l-6 172l16 184l39 151l96 79l86 17l54 -34l-55 -29z" />
    <glyph glyph-name="parenright" unicode=")" horiz-adv-x="459" 
d="M170 153l-5 -19l-4 114l-2 100l10 124l-21 112l-32 145l-41 29l41 22l97 -7l74 -81l48 -155l32 -190l-22 -178l-67 -121l-64 -91l-114 -43l-18 38l17 43z" />
    <glyph glyph-name="asterisk" unicode="*" horiz-adv-x="508" 
d="M283 576l-22 -10l-16 -5l-58 106l77 54l41 -45zM244 457l4 -2l29 22l38 -113l-66 -73l-46 45zM291 480l-2 -14l26 40l129 -67l-40 -59zM307 524l8 13h-14l85 133l75 -79zM219 500l-5 -7l24 -12l-117 -103l-78 70zM228 547l10 -6l-37 -21l-153 62l80 88z" />
    <glyph glyph-name="plus" unicode="+" horiz-adv-x="837" 
d="M121 265l12 17l-13 55l40 27l206 1l-28 208l38 19l72 13l49 -40l-13 -197l181 -8l56 -34l-24 -53l-20 -28l-183 -4l-5 -181l-43 -62l-44 14l-41 24l4 188l-193 4z" />
    <glyph glyph-name="comma" unicode="," horiz-adv-x="339" 
d="M57 72l7 16l117 104l103 -125l-53 -150l-104 -48l-39 22l95 63l-49 25z" />
    <glyph glyph-name="hyphen" unicode="-" horiz-adv-x="450" 
d="M363 263l15 -2l-167 10l-127 8l-39 41l-5 96l38 19l162 14l138 -12l49 -46l-4 -84z" />
    <glyph glyph-name="period" unicode="." horiz-adv-x="339" 
d="M62 82l20 8l98 91l107 -104l-107 -99z" />
    <glyph glyph-name="slash" unicode="/" horiz-adv-x="282" 
d="M283 725l-8 20l-33 -124l-25 -93l-22 -111l-47 -114l-43 -115l-14 -104l-59 -97l-36 8l41 103l29 114l28 81l53 120l30 95l38 105l31 111z" />
    <glyph glyph-name="zero" unicode="0" 
d="M323 -20l-8 20l2 46l55 106l13 103l-13 99l-8 100l20 109l-70 100l16 71l128 -32l78 -67l39 -143l33 -135l-19 -161l-42 -117l-87 -72zM313 44l-13 8l12 -52l-134 17l-83 62l-34 144l-39 146l23 128l45 132l78 69l143 15l-11 -43l-37 -106l-2 -87l-2 -110l-13 -115
l4 -116z" />
    <glyph glyph-name="one" unicode="1" 
d="M205 705h3l225 14l-28 -104l2 -140l9 -111l13 -127l-13 -131l58 -83l-31 -33l-143 10l-104 8l-53 31l70 83l-7 97l19 137l-5 111l4 122l-57 79z" />
    <glyph glyph-name="two" unicode="2" 
d="M235 188l-5 -4l237 -24l31 42l48 44l33 -41l-58 -136l-143 -95l-197 62l-83 -48l-21 26l41 122zM278 661l4 11l9 45l136 -3l91 -72l21 -124l-117 -202l-187 -98l-127 -15l-1 -17l158 162l75 179zM263 713l-11 14l-1 -75l-25 8l35 -96l-99 -126l-103 127l60 117z" />
    <glyph glyph-name="three" unicode="3" 
d="M277 -20l-6 3l9 79l69 106l-13 80l-53 93l-33 36l31 40l156 147l90 37l-120 -196l-7 -29l135 -56l33 -141l-28 -108l-98 -67zM238 66l15 -5l9 -82l-154 69l-60 113l85 101l109 -107l-34 -82zM132 532l-1 4l-1 -16l-65 11l38 192l60 8l-17 -52l147 38l192 2l28 17l30 -41
l-154 -109l-193 20z" />
    <glyph glyph-name="four" unicode="4" 
d="M54 260l3 4l59 86l87 96l43 104l16 -79l-74 -117l-86 -105l-7 -29l180 14l-5 -76l-176 -1l-52 36zM301 114l1 -13l2 127l-17 126l5 119l12 132l66 100l38 8l72 28l7 -33l9 -137l-2 -100l-4 -121l21 -129l43 20l47 -48l-40 -12l-56 -2l-13 -68l71 -84l-34 -34l-148 19
l-117 -17l-42 48z" />
    <glyph glyph-name="five" unicode="5" 
d="M96 539l13 12l11 187l239 -46l181 34l2 -18l-67 -116l-226 -65zM263 458l-15 4l2 -83l-132 -43l-21 31l-10 42l2 92l79 -3l-34 -93zM307 -19l-26 19l9 42l49 112l-4 129l-30 88l-11 90l47 -14l164 -44l65 -176l-43 -131l-87 -88zM275 66l-2 -24l2 -57l-160 56l-59 114
l114 118l87 -110l-49 -101z" />
    <glyph glyph-name="six" unicode="6" 
d="M298 45l16 3l-10 -56l-146 62l-91 104l-32 195l29 186l116 151l122 37l-6 -55l-43 -97l2 -104l13 -110l-2 -101l3 -122zM336 -5l-7 -21l-2 81h13l44 61l-13 142l-29 76l-64 -24l2 85l113 23l149 -62l54 -135l-44 -131l-69 -66zM328 664l22 3l-2 60l-14 -4l163 -36
l57 -119l-117 -93l-86 85l38 60z" />
    <glyph glyph-name="seven" unicode="7" 
d="M398 493l4 7l66 26l-59 -233l21 -169l-97 -133l-132 155l103 197zM142 498l-22 -2l-47 -7l29 105l15 128l37 -17l14 -37l134 72l188 -45l43 34l16 -17l-43 -130l-109 -52l-226 26z" />
    <glyph glyph-name="eight" unicode="8" 
d="M328 -18l13 5l-19 -13l19 78l22 74l9 140l-46 79l-5 70l36 51v129l-41 62l23 80l-11 -10l164 -45l63 -141l-141 -161l135 -67l41 -129l-59 -155zM302 34l9 18l-2 -63l-26 -4l-174 59l-60 131l28 144l134 63l-140 141l44 151l172 38l1 18l11 -57l-26 -88l-13 -130l44 -61
l-19 -61l-34 -55v-170z" />
    <glyph glyph-name="nine" unicode="9" 
d="M281 720l6 9l-5 -53l-3 -20l-34 -76l-5 -149l61 -48l30 13l-6 -59l-110 -42l-132 55l-40 145l30 124l91 68zM327 660l-1 -10l-16 77l5 -15l124 -24l108 -123l48 -222l-50 -193l-86 -123l-149 -48l-2 18v47l61 86l1 119l-11 93l19 125l-14 109zM294 58l-3 -10l-10 -69
l16 13l-152 45l-76 106l115 113l103 -93l-53 -73z" />
    <glyph glyph-name="colon" unicode=":" horiz-adv-x="339" 
d="M59 84l3 13l116 99l101 -97l-100 -119zM60 367l-5 -17l126 126l88 -113l-109 -94z" />
    <glyph glyph-name="semicolon" unicode=";" horiz-adv-x="339" 
d="M58 356l3 13l115 100l102 -98l-101 -118zM55 85l5 -2l106 118l105 -140l-41 -128l-130 -76l-11 54l76 61l-31 25z" />
    <glyph glyph-name="less" unicode="&#x3c;" horiz-adv-x="837" 
d="M118 368l-3 15l117 35l132 39l118 62l106 35l136 67l-14 -147l-90 -51l-110 -34l-104 -31l-100 -61l99 -38l95 -48l122 -18l85 -51l-6 -141l-114 45l-115 50l-104 45l-119 54l-114 33z" />
    <glyph glyph-name="equal" unicode="=" horiz-adv-x="837" 
d="M113 393l16 3l-10 52l40 55l126 -20l126 3l122 -8l149 23l30 -55l-6 -38l-42 -49l-124 2l-114 -4l-128 6l-123 -16zM120 171l-8 -6l1 31l43 63h137l136 -18l114 1l134 5l26 -46l2 -28l-45 -59l-111 -9l-126 13l-137 -13l-107 18z" />
    <glyph glyph-name="greater" unicode="&#x3e;" horiz-adv-x="837" 
d="M118 461l-3 15v136l132 -58l118 -35l106 -62l136 -30l103 -46l9 -149l-127 -43l-122 -38l-117 -69l-117 -45l-122 -57l23 172l84 31l94 48l102 37l102 43l-86 37l-102 46l-96 25z" />
    <glyph glyph-name="question" unicode="?" horiz-adv-x="512" 
d="M97 84l3 13l115 99l101 -97l-100 -118zM268 678l-4 -10l15 51l5 13l143 -71l80 -121l-39 -138l-65 -86l-136 -17l-36 -14l1 -36l-30 -28l-35 32l23 186l51 34l90 117zM112 518l18 -22l-109 106l70 83l132 52h23l10 -78l-17 1l-29 -16l-4 -47z" />
    <glyph glyph-name="at" unicode="@" horiz-adv-x="1003" 
d="M565 465q-50 0 -88 -68q-36 -62 -53 -125.5t-17 -98.5q0 -70 55 -70q41 0 85 87q17 33 28.5 66.5t19.5 64t11.5 55t3.5 39.5q0 50 -45 50zM581 152h-3q-58 -94 -140 -94q-74 0 -118.5 46t-44.5 127q0 53 21.5 103t57.5 89t82.5 62.5t97.5 23.5q98 0 109 -86l22 75h116
l-87 -313q-8 -30 -8 -43q0 -22 9.5 -30.5t24.5 -8.5q37 0 70 24t58 63.5t39.5 89.5t14.5 101q0 71 -24 127t-67.5 95.5t-104.5 60.5t-134 21q-90 0 -165.5 -34t-130 -92.5t-84.5 -137.5t-30 -169q0 -81 25.5 -146.5t73 -111t116 -70t154.5 -24.5q89 0 163 27t152 76l23 -33
q-151 -114 -336 -114q-110 0 -197.5 29.5t-148 83t-93 129t-32.5 167.5q0 101 40.5 186t109 146.5t158.5 96.5t190 35q86 0 157 -25t121 -70.5t77.5 -109.5t27.5 -142q0 -60 -16 -118.5t-48 -104t-79 -73.5t-109 -28q-50 0 -80 26t-30 68z" />
    <glyph glyph-name="A" unicode="A" horiz-adv-x="732" 
d="M135 168l2 2l8 110l44 103l16 119l46 94l24 -110l-24 -113l-45 -121l-22 -116l-12 -18l77 -100l-45 -10l-132 -3l-35 34l37 21zM395 107l16 14l-38 73l-129 -5l7 56l115 2l-33 156l-35 133l-44 115l36 75l109 -11l94 19l43 -136l7 -129l28 -104l47 -134l15 -104l19 -71
l39 -16l-32 -51l-122 15l-128 -9l-46 50z" />
    <glyph glyph-name="B" unicode="B" horiz-adv-x="713" 
d="M327 0l-9 -5l-115 16l-133 -14l-35 35l33 82l15 120l-13 134l17 109l-6 138l-48 80l27 18l133 -5l119 13l9 -135l5 -98l-7 -123l13 -117l-12 -138zM399 4l-7 -9l-48 -5l24 82l55 94l20 100l-87 73l2 63l75 111l-1 67l-86 70l18 76l45 -11l187 -22l78 -152l-69 -121
l-133 -33l17 -16l124 -38l45 -154l-30 -88l-66 -82z" />
    <glyph glyph-name="C" unicode="C" horiz-adv-x="658" 
d="M384 662l-16 -7l8 66l126 -25l63 18l34 -14l-7 -198l-19 -54l-75 93zM384 -9l2 -2l-21 72l134 54l51 106l50 -53l-56 -98zM348 55l5 15l-11 -92l-112 46l-96 64l-76 134l-9 138l-2 144l60 132l115 62l117 50l-3 -100l-61 -68l26 -125l-6 -91l-12 -115l11 -90z" />
    <glyph glyph-name="D" unicode="D" horiz-adv-x="710" 
d="M327 0l-9 -5l-115 16l-133 -14l-35 35l33 82l15 120l-13 134l17 109l-6 138l-48 80l27 18l133 -5l119 13l9 -135l5 -98l-7 -123l13 -117l-12 -138zM361 4l-3 -10v81l65 93l-11 115l18 151l2 125l-79 114l13 47l113 -35l99 -57l79 -127l7 -126l-25 -173l-61 -92l-75 -94z
" />
    <glyph glyph-name="E" unicode="E" horiz-adv-x="636" 
d="M361 654l-8 -12l-7 79l119 -15l114 22l-7 -195l-16 -27l-70 63zM311 -7l1 -1l-128 18l-108 -13l-58 48l51 52l1 147l26 105l-6 139l-12 116l-43 98l35 15l133 5l105 1l15 -125l-13 -110l17 -135l-6 -107l6 -122zM595 0l-8 -6l-113 20l-114 -2l-11 45l156 93l55 75l22 -56
zM359 330l-10 14l20 55l41 43l36 62l52 -34l-20 -178l-8 -56z" />
    <glyph glyph-name="F" unicode="F" horiz-adv-x="631" 
d="M361 654l-8 -12l-7 79l119 -15l114 22l-7 -194l-16 -29l-70 64zM60 713l24 7l102 -8l124 18l17 -135l-15 -104l-3 -150l1 -100l26 -141l59 -67l-63 -38l-121 16l-141 -14l-35 35l33 82l15 120l-13 134l17 109l-6 138l-48 80zM356 352l3 -22l2 68l53 63l45 65l17 -76
l18 -166l-26 -62z" />
    <glyph glyph-name="G" unicode="G" horiz-adv-x="687" 
d="M621 691l-16 -7l8 -191l-46 -42l-69 107l-129 122l-7 58l169 -35l49 15zM340 52l-17 6l17 -74l-134 45l-98 48l-61 140l3 132l18 171l53 109l106 90l107 11l8 -56l-69 -94l15 -114l-13 -98l17 -123l-6 -96zM355 -21l25 19l-20 67l62 53l-12 139l-54 77l45 48l109 -2
l98 -21l57 -15l-33 -76l-13 -162l-109 -93z" />
    <glyph glyph-name="H" unicode="H" horiz-adv-x="756" 
d="M327 2l-6 3l-135 -16l-112 13l-60 32l62 66l-8 149l10 103l-9 129l25 123l-59 85l48 42l122 -19l118 3l52 -6l-46 -91l-12 -122l19 -119l-19 -155l7 -118l33 -86zM351 349l-1 1l-8 50l97 16l-1 91l1 121l-48 85l33 6l138 8l136 -18l39 -26l-52 -74l-3 -114l3 -131
l-17 -135l-8 -120l57 -67l-29 -55l-126 26l-136 -24l-23 34l20 74l4 125l-1 106z" />
    <glyph glyph-name="I" unicode="I" horiz-adv-x="405" 
d="M73 722l-6 3l123 -16l147 13l26 -27l-47 -97l-8 -101l10 -146l-9 -120l25 -127l50 -76l-38 -17l-137 -19l-140 3l-26 49l46 65l-12 132l19 134l-19 99l7 136l-59 73z" />
    <glyph glyph-name="J" unicode="J" horiz-adv-x="600" 
d="M265 722l-14 -13l148 13l115 2l52 -44l-63 -58l10 -158l-9 -131l25 -139l-30 -118l-79 -55l-156 -41l-28 3l17 87l31 78l-12 123l19 126l-19 92l7 127l-69 68zM205 61l9 8l-9 -90l-128 65l-66 113l115 124l105 -120l-72 -80z" />
    <glyph glyph-name="K" unicode="K" horiz-adv-x="761" 
d="M327 2l-6 3l-135 -16l-112 13l-60 32l62 66l-8 149l10 103l-9 129l25 123l-59 85l48 42l126 -19l123 3l59 -10l-62 -98l-12 -120l19 -116l-19 -151l7 -116l33 -86zM515 500l-9 -12l61 -82l44 -114l45 -84l34 -96l54 -81l-33 -24l-121 -18l-133 3l-45 43l35 60l-3 29
l-77 155l-26 76l32 66l111 108l35 99l-78 49l60 40h157l47 -29l-57 -62z" />
    <glyph glyph-name="L" unicode="L" 
d="M324 2l-14 -13l-111 13l-142 2l-35 15l46 105l10 104l-9 129l25 122l-5 128l-49 95l38 10l122 3l149 19l34 -45l-66 -75l19 -112l-19 -147l7 -110l-5 -131zM562 5l9 8l-115 -24l-96 8l-17 66l132 91l52 84l37 -61z" />
    <glyph glyph-name="M" unicode="M" horiz-adv-x="807" 
d="M98 514l-15 -5l27 -2l50 -165l5 -164l20 -98l50 -52l-26 -14l-147 -16l-55 40l69 56l15 86l7 118l-5 99zM448 408l16 8l-34 -91l-27 -109l-48 -113l-39 -97l-28 6l-26 94l-39 145l-48 96l-29 127l-57 119l-49 72l-35 15l44 47l124 -2l118 -16l63 -129l31 -140l59 162
l-6 24zM494 103v12l4 120l-24 132l6 115l-2 113l4 133l135 -6l113 -11l61 -14l-60 -67l-10 -135l-8 -141l17 -112l-1 -144l55 -60l-53 -28l-133 -11l-120 8l-35 12z" />
    <glyph glyph-name="N" unicode="N" horiz-adv-x="687" 
d="M94 192l-15 -5l25 121l-5 127l5 136l52 -119l-9 -143l17 -128l17 -95l47 -48l-24 -23l-158 -25l-36 44l55 46zM592 522l11 5l-17 -116l4 -112l-59 85l5 153l-26 100l-67 39l56 46l124 2l50 -48l-68 -31zM592 230l1 19l-8 -134l17 -104l-150 -16l-60 118l-70 107l-63 94
l-50 112l-51 87l-65 108l-74 72l37 40l139 -5l119 -9l47 -89l59 -90l69 -120l57 -70z" />
    <glyph glyph-name="O" unicode="O" horiz-adv-x="714" 
d="M344 50l-8 -13l-8 -37l-118 12l-105 81l-36 112l-26 153l26 162l55 96l88 78l145 53l-8 -77l-62 -88l19 -99l-19 -133l7 -97l-5 -118zM358 -9l23 9l3 56l32 86l-8 116l3 114l14 83l1 135l-58 71l11 69l112 -34l100 -71l59 -130l26 -128l-23 -151l-68 -131l-81 -62z" />
    <glyph glyph-name="P" unicode="P" horiz-adv-x="685" 
d="M86 728l-23 -2l127 -8h130l12 -108l-16 -126l10 -132l-13 -127l16 -125l47 -73l-52 -36l-127 16h-120l-63 24l74 70l-4 121l-10 124l22 130l-8 133l-74 71zM365 274l17 -1l-35 14l19 62l43 74l20 151l-65 100l-12 55l37 -2l151 -41l76 -58l42 -136l-46 -107l-90 -78z" />
    <glyph glyph-name="Q" unicode="Q" horiz-adv-x="714" 
d="M357 741l-5 4l-16 -65l-40 -106l-13 -114l16 -111l-18 -99l-1 -116l55 -79l13 -61l-148 28l-77 64l-64 111l-31 149l43 155l52 123l77 64zM370 -15l7 10l-19 54l36 5l-79 58l51 47l46 -27l22 106l-5 119l-14 123l19 108l-70 80l20 71l127 -25l85 -81l76 -117l20 -165
l-43 -151l-74 -139l37 -3l52 7l18 -35l-126 -64l-99 36z" />
    <glyph glyph-name="R" unicode="R" horiz-adv-x="737" 
d="M368 331l-19 -2l-5 54l62 98l2 85l-57 91l12 75l22 -4l204 -55l49 -144l-24 -118l-142 -51l-1 -9l174 -122l13 -91l-10 -26l61 18l28 -37l-168 -114l-96 49l-46 141l-20 52zM64 730l1 -20l136 18l107 -7l1 -134v-127l1 -112l3 -134l22 -125l49 -62l-56 -16h-113l-152 -15
l-23 40l53 90l-12 119l16 122l-1 108l-17 141l-43 69z" />
    <glyph glyph-name="S" unicode="S" horiz-adv-x="616" 
d="M289 61l-9 -1l-20 -73l-122 19l-55 -34l-42 44l22 193l24 61l28 -93zM297 -7h22l-1 51l73 91l-124 105l-169 110l-56 147l25 116l84 94l129 24h12l12 -47l-83 -82l157 -125l141 -101l66 -157l-51 -118l-95 -93zM323 681l-8 -21l22 59l132 -19l37 44l48 -38l-21 -184
l-10 -38l-48 84z" />
    <glyph glyph-name="T" unicode="T" horiz-adv-x="672" 
d="M51 529l-9 -18l-4 195h134l22 -62l-74 -106l-63 -82zM477 721l18 -4l132 -5l16 -111l-18 -98l-37 -45l-38 87l-53 114zM214 728l14 -11l106 14h140l-21 -139l20 -114l-1 -116l-12 -130l16 -126l63 -86l-68 -13l-123 -13l-149 16l-47 25l59 69l1 131l2 115l4 122l12 137z
" />
    <glyph glyph-name="U" unicode="U" horiz-adv-x="716" 
d="M441 1l-5 4l-16 66l135 159l-13 103l16 105l-18 117l-31 74l-48 65l55 33l131 -6l62 -44l-63 -60l-35 -101l22 -130l-8 -128l-61 -197zM394 63l-7 -10l22 -77l-73 9l-196 66l-38 159l-21 122l20 146l-1 146l-66 76l59 27l133 -16l116 16l63 -41l-80 -62l3 -118l-5 -122
l1 -105l2 -122z" />
    <glyph glyph-name="V" unicode="V" horiz-adv-x="682" 
d="M487 253l-11 -11l-15 -5l-16 103l12 120l29 103l10 51l-56 81l30 26l145 -11l45 -34l-60 -40l-26 -71l-37 -101l-50 -121v-90zM327 618l14 -11l17 -92l49 -106l10 -120l51 -96l-52 -183l-150 -6l-14 100l-32 86l-47 119l-19 89l-46 118l-27 98l-65 72l60 40l118 -8h120
l69 -20z" />
    <glyph glyph-name="W" unicode="W" horiz-adv-x="915" 
d="M351 618l-23 -2l34 -129l36 -121l44 -107l-47 -130l-22 -137l-133 -5l-16 120l-50 131l-34 116l-27 138l-19 123l-46 40l-14 23l54 28h106l138 6l50 -26l-64 -67zM702 235l22 -12l-36 -110l-45 -107h-101l-52 102l-10 128l-32 126l-43 112l48 125l30 112l99 16l43 -134
l16 -104l35 -125zM719 281l23 24l-9 -10l-28 116l41 163l-20 40l-47 73l38 23l131 18l26 -37l-45 -51l-44 -80l-34 -129z" />
    <glyph glyph-name="X" unicode="X" horiz-adv-x="693" 
d="M164 167l-27 -17l76 125l42 -62l-58 -65l5 -57l54 -73l-73 -32l-87 6l-57 39l27 30zM599 -2l2 -10l-104 -2l-130 11l-67 47l54 47l-29 12l-31 114l-52 112l-62 98l-35 101l-52 88l-69 81l55 17l110 16l128 -4l45 -35l-28 -35l13 -41l55 -103l63 -88l34 -107l61 -113
l38 -108l73 -75zM513 581l21 2l-66 -104l-55 70l43 35l5 33l-45 84l23 20l156 -11l25 -29z" />
    <glyph glyph-name="Y" unicode="Y" horiz-adv-x="704" 
d="M567 587l4 -18l-49 -95l-26 -106l-25 61l30 131l25 57l-64 67l40 23l127 7l55 -25l-53 -24zM353 627l3 -3l59 -134l54 -157l-3 -127l6 -107l50 -57l-48 -37l-122 -10l-149 19l-36 2l50 78l1 203l-44 108l-55 96l-37 110l-39 71l53 30l102 13l122 -2l67 -35l-50 -61h16z
" />
    <glyph glyph-name="Z" unicode="Z" horiz-adv-x="591" 
d="M558 15l-11 -27l-112 25l-127 -17l21 58l145 85l63 95l29 -61zM568 646l-9 6l-62 -90l-33 -137l-63 -109l-47 -92l-46 -109l-56 -123l-110 2h-99l-5 61l34 123l55 107l58 110l30 92l58 138l46 92l111 3l135 -8zM38 725l22 -4l112 10l118 2l-32 -82l-135 -81l-44 -65
l-44 83z" />
    <glyph glyph-name="bracketleft" unicode="[" horiz-adv-x="456" 
d="M296 705l-5 -10l12 -120l-14 -91l15 -137l-14 -110l1 -92l2 -110l22 -43l36 2l48 -13l-5 -46h-42l-188 -2l-32 42l-18 94l9 139l-2 94l-7 114l16 103l3 108l-27 110l61 66l198 -17l20 -22l1 -37l-21 -8l-31 16z" />
    <glyph glyph-name="backslash" unicode="\" horiz-adv-x="282" 
d="M285 2l-1 -10l-46 -2l-25 107l-52 89l-26 135l-36 89l-42 110l-18 98l-32 104l25 -1l54 -82l38 -123l27 -116l35 -99l42 -102l30 -90z" />
    <glyph glyph-name="bracketright" unicode="]" horiz-adv-x="456" 
d="M154 45l-5 -10l12 100l-14 129l15 83l-14 110l1 128l2 110l-38 17l-18 2l-8 13l-5 42l14 26l200 -2l52 -41l-18 -128l9 -83l-2 -128l-7 -108l16 -119l3 -114l-27 -112l-23 -17l-190 -17l-36 4l1 51l35 18l23 16z" />
    <glyph glyph-name="asciicircum" unicode="^" horiz-adv-x="1017" 
d="M201 462l-3 -29l86 122l76 76l70 97l160 -8l80 -97l50 -94l96 -69l-62 -17l-127 69l-118 86l-111 -73l-122 -63h-75z" />
    <glyph glyph-name="underscore" unicode="_" horiz-adv-x="508" 
d="M-3 -226l-3 -15l16 133l130 -3l100 -1l146 25l131 -17l-8 -150l-126 7l-120 5l-131 16h-135z" />
    <glyph glyph-name="grave" unicode="`" horiz-adv-x="508" 
d="M338 785l8 -2l-51 -17l-150 43l-43 58l54 53l49 -10z" />
    <glyph glyph-name="a" unicode="a" horiz-adv-x="732" 
d="M127 183l5 -12l39 109l11 91l38 137l27 92l23 -120l-14 -119l-26 -113l-57 -112l14 -6l72 -102l-58 -41l-124 7l-41 36l45 55zM392 115l14 5l-28 56l-157 10l29 80l125 -12l-41 146l-35 137l-38 116l15 53l113 14l93 13l33 -130l42 -131l16 -103l45 -148l16 -122l23 -24
l40 -38l-66 -45l-107 2h-96l-62 32z" />
    <glyph glyph-name="b" unicode="b" horiz-adv-x="713" 
d="M319 15l18 -21l-131 -2l-139 13l-37 28l64 81l-18 108l9 152l-2 107l-7 128l-38 74l46 26l98 -1l145 25l4 -137l-8 -129l1 -113l7 -115l-4 -104zM386 -6l10 15l-38 -17l5 79l65 77l-8 115l-65 97l12 49l67 101l-1 71l-80 71l-3 54l49 14l186 -28l68 -146l-34 -123
l-145 -32l15 -30l125 -56l49 -107l-29 -110l-100 -76z" />
    <glyph glyph-name="c" unicode="c" horiz-adv-x="658" 
d="M373 649l-1 5l12 94l121 -43l66 38l35 -56l-11 -181l-30 -75l-62 107zM391 -3v4l-21 49l139 53l50 111l39 -36l-47 -108zM340 55l23 13l-11 -80l-131 45l-89 47l-81 115l-1 154l17 155l62 123l77 61l139 47l2 -68l-55 -91l-7 -102l8 -105l-14 -114l-3 -92z" />
    <glyph glyph-name="d" unicode="d" horiz-adv-x="710" 
d="M316 -13l-2 14l-129 14l-123 -18l-22 47l33 59l20 119l-14 139l6 126l3 128l-48 86l24 11l137 23l114 -5l12 -115l6 -140l-11 -106l2 -138l1 -124zM359 9l-15 -1l19 63l70 95l-11 127l-1 150l9 108l-84 95l21 63l132 -24l101 -66l41 -128l29 -129l-20 -141l-55 -115
l-108 -71z" />
    <glyph glyph-name="e" unicode="e" horiz-adv-x="636" 
d="M350 641l11 28l-12 61l122 5l115 -20l-11 -178l-27 -48l-57 77zM315 -8h17l-126 9l-146 -14l-36 45l56 84l7 124l-7 128l8 125l-14 117l-57 96l45 11l146 17l105 -22l20 -126l-14 -105l6 -118l3 -117l6 -116zM596 -11l-23 19l-94 2h-109l-11 57l137 92l62 58l17 -75z
M366 351l-1 -21l-4 89l58 19l46 88l8 -69l19 -189l-46 -55z" />
    <glyph glyph-name="f" unicode="f" horiz-adv-x="631" 
d="M350 641l11 28l-12 61l122 5l115 -20l-11 -177l-27 -50l-57 78zM64 712l21 -3l121 3l126 9l-21 -136l7 -107l2 -118l7 -123l-7 -118l73 -81l-65 -37l-135 14l-131 -18l-22 47l33 59l20 119l-14 139l6 126l3 128l-48 86zM349 325l17 26l-19 61l72 45l50 67l17 -64l-1 -167
l-19 -79z" />
    <glyph glyph-name="g" unicode="g" horiz-adv-x="687" 
d="M610 678l-1 5l12 -163l-51 -60l-66 127l-128 80l-11 75l158 -56l62 29zM347 58l-2 -9l-21 -75l-112 42l-93 80l-55 117l-30 155l32 157l51 110l92 88l117 7l21 -44l-69 -117l20 -115l-14 -93l6 -106l3 -106zM375 -21l-20 6l19 56l24 54l19 183l-75 70l64 30h114l98 -9
l38 -16l-26 -93l-18 -181l-101 -77z" />
    <glyph glyph-name="h" unicode="h" horiz-adv-x="756" 
d="M319 -13l4 21l-119 1l-141 -8l-46 44l56 63l21 142l-21 102l20 118l-14 140l-48 84l46 32l133 4l108 -18l47 -2l-50 -80l12 -124l6 -149l-11 -116l2 -147l39 -81zM358 346l-14 -3l19 63l79 -9l-4 130l5 84l-38 104l15 3l146 -8l109 -4l62 -2l-73 -87l19 -125l4 -126
l-11 -135l-1 -113l63 -101l-61 -30l-106 2l-131 3l-34 35l16 60l7 136l2 124z" />
    <glyph glyph-name="i" unicode="i" horiz-adv-x="405" 
d="M65 707l4 21l139 1l118 -8l40 -15l-53 -100l21 -108l-21 -147l20 -131l-14 -110l61 -77l-40 -27l-126 4l-150 -18l-31 53l42 76l12 130l6 104l-11 138l2 107l-53 78z" />
    <glyph glyph-name="j" unicode="j" horiz-adv-x="600" 
d="M257 707l12 22l119 -8l129 14l46 -47l-34 -65l-21 -159l20 -142l-14 -122l-19 -119l-81 -65l-145 -18l-38 -18l12 91l27 89l12 121l6 96l-11 131l2 98l-63 73zM207 64l16 -19l-4 -63l-139 66l-70 99l118 135l108 -102l-70 -102z" />
    <glyph glyph-name="k" unicode="k" horiz-adv-x="761" 
d="M319 -13l4 21l-119 1l-141 -8l-46 44l56 63l21 142l-21 102l20 118l-14 140l-48 84l46 32l137 4l113 -18l54 -6l-66 -87l12 -122l6 -146l-11 -112l2 -145l39 -81zM522 497l5 -3l43 -107l41 -75l49 -121l44 -77l36 -84l-25 -40l-148 -4l-110 27l-66 30l57 49l-2 34
l-71 155l-19 83l38 32l79 133l55 75l-73 76l49 41l153 -14l50 -18l-54 -44z" />
    <glyph glyph-name="l" unicode="l" 
d="M329 -7l2 3l-122 1l-136 12l-38 11l37 100l9 114l15 137l-22 109l23 131l-57 95l29 9l134 9l136 -2l29 -29l-34 -88l-22 -122l-1 -107l16 -142l-13 -98zM559 1l14 14l-114 -5l-120 -15l11 68l141 85l41 104l37 -79z" />
    <glyph glyph-name="m" unicode="m" horiz-adv-x="807" 
d="M103 505l7 18l-20 -15l78 -162l-3 -164l11 -99l62 -46l-39 -35h-152l-23 27l28 46l33 126l16 86l-13 132zM451 414l-7 -5l-14 -103l-44 -85l-35 -104l-15 -112l-36 6l-41 123l-34 119l-47 115l-53 104l-29 121l-40 66l-46 35l44 29l116 -2l142 -5l52 -141l37 -130l56 158
l-15 19zM475 120l12 -21l2 147l2 97l-18 126l7 139l7 100l137 13l115 14l51 -55l-69 -74l7 -124l3 -137l-2 -103l-11 -129l69 -91l-52 -19l-119 -15l-152 11l-41 25z" />
    <glyph glyph-name="n" unicode="n" horiz-adv-x="687" 
d="M99 183l7 18l-22 108l23 130l-3 136l43 -120l3 -137l4 -149l12 -79l79 -61l-65 -33l-140 15l-27 12l47 79zM595 528l-13 -3l11 -114l13 -118l-70 105l5 135l-34 100l-43 50l45 34l130 12l47 -52l-77 -36zM595 251l5 -15l3 -130l-2 -95l-160 -1l-46 87l-69 116l-49 90
l-82 115l-57 100l-64 120l-75 48l57 28l122 19h132l71 -104l51 -90l54 -91l62 -96z" />
    <glyph glyph-name="o" unicode="o" horiz-adv-x="714" 
d="M349 41v-3l-17 -42l-119 22l-81 89l-83 99l2 156l18 162l46 95l100 84l132 32l-13 -61l-30 -101l-22 -109l-1 -93l16 -129l-13 -85zM374 -4l7 -15l-14 80l45 95l16 101l-5 114l-1 112l6 109l-57 90l-13 46l140 -32l109 -77l48 -110l26 -146l-31 -151l-44 -120l-92 -74z
" />
    <glyph glyph-name="p" unicode="p" horiz-adv-x="685" 
d="M78 713l2 3l129 1l115 12l5 -141l-17 -103l9 -132l15 -109l-22 -137l88 -76l-54 -16l-146 -20l-130 9l-39 28l41 81l20 119l-22 124l-1 139l16 104l-67 106zM367 277l16 -7l-35 19l-4 62l80 81l-5 147l-65 95l6 61l13 -5l139 -40l104 -72l44 -125l-43 -118l-88 -71z" />
    <glyph glyph-name="q" unicode="q" horiz-adv-x="714" 
d="M349 726v-3l-17 -42l-41 -106l15 -96l-22 -123l23 -102l-3 -96l36 -115l3 -52l-124 32l-110 75l-40 109l-43 149l20 164l76 94l84 99zM374 -4l7 -17l-9 72l47 1l-100 72l53 31l40 -2l1 92l17 109l-14 128l-4 108l-33 87l-5 67l127 -30l103 -75l52 -120l8 -164l-15 -165
l-72 -128l40 -14l54 14l13 -29l-111 -77l-97 45z" />
    <glyph glyph-name="r" unicode="r" horiz-adv-x="737" 
d="M360 316l-4 10l-10 60l77 85l4 94l-72 103l5 42l21 19l203 -55l77 -126l-62 -130l-101 -54l-3 11l155 -158l3 -82l14 -22l28 29l52 -39l-180 -114l-119 58l-22 112l-13 87zM69 720l-4 10l140 -18l117 11l12 -138l-21 -113l3 -128l-3 -109l1 -139l71 -72l-56 -11h-136
l-115 -8l-48 36l53 85l6 125l-8 119l-13 109l11 127l-41 80z" />
    <glyph glyph-name="s" unicode="s" horiz-adv-x="616" 
d="M281 46l-6 11l4 -69l-155 30l-31 -36l-54 44l-1 202l48 32l35 -58zM302 -19l1 15l-13 52l101 77l-122 116l-166 99l-54 154l20 122l99 81l131 33l-3 12l5 -80l-84 -59l156 -125l169 -83l28 -169l-10 -121l-97 -73zM331 687l-16 -6l1 45l154 -29l37 49l25 -38l16 -177
l-35 -42l-48 79z" />
    <glyph glyph-name="t" unicode="t" horiz-adv-x="672" 
d="M40 516l5 4l-1 215l136 -12l-13 -76l-55 -96l-50 -98zM485 718l15 -11l136 23l-14 -105l2 -113l-29 -54l-38 93l-56 107zM220 710l13 3l111 16l111 -18l19 -110l-3 -132l-6 -133l-5 -115l6 -114l65 -66l-45 -44l-132 14l-144 -11l-41 30l56 63l-16 147l2 116l20 120
l-9 133z" />
    <glyph glyph-name="u" unicode="u" horiz-adv-x="716" 
d="M430 -12l-2 17l-2 48l134 167l-9 131l-14 111l2 102l-23 65l-48 71l52 26l135 -8l57 -32l-60 -40l-33 -113l-13 -144l11 -118l-48 -213zM407 67l-13 7l1 -84l-54 -9l-191 68l-67 141l19 151l-3 128l-6 129l-59 91l49 39l135 4l139 -15l54 -14l-75 -89l9 -113l-8 -128
l-16 -89l2 -121z" />
    <glyph glyph-name="v" unicode="v" horiz-adv-x="682" 
d="M476 240l5 -8l-11 23l-46 109l32 105l37 94l10 57l-59 74l34 24l140 1l48 -14l-58 -52l-61 -85l-18 -91l-37 -137zM333 600l13 3l22 -90l20 -124l50 -91l28 -114l-57 -200l-143 9l-24 112l-30 106l-24 88l-28 116l-41 91l-21 103l-68 66l43 56l118 -7l136 -2l48 -24z" />
    <glyph glyph-name="w" unicode="w" horiz-adv-x="915" 
d="M340 605l-15 16l34 -128l52 -123l23 -111l-33 -148l-23 -129l-129 23l-46 126l-30 116l-26 107l-27 144l-22 116l-42 38l-19 35l57 48l108 -12l103 -8l69 -16l-51 -83zM716 224l-6 13l-17 -128l-40 -105l-130 -18l-12 131l-33 110l-37 109l-36 127l38 137l32 132l122 -15
l34 -107l21 -131l41 -120zM726 302l17 -4l-18 10l-18 113l31 150l5 25l-77 107l43 27l149 -6l35 -41l-59 -27l-36 -90l-42 -129z" />
    <glyph glyph-name="x" unicode="x" horiz-adv-x="693" 
d="M153 154l-9 -4l76 131l39 -69l-54 -67v-45l57 -53l-71 -44l-122 -8l-38 49l40 14zM598 7l10 2l-125 -9l-111 -7l-62 49l25 29l11 41l-54 96l-57 95l-55 113l-45 113l-50 108l-46 50l46 44l115 -11l134 1l42 -41l-45 -19l13 -40l71 -105l42 -92l48 -125l60 -105l42 -80
l43 -69zM518 587l18 6l-76 -117l-30 55l13 69l10 37l-27 60l32 16l142 13l33 -39z" />
    <glyph glyph-name="y" unicode="y" horiz-adv-x="704" 
d="M574 567l-16 12l-35 -114l-37 -76l-18 57l41 124l21 33l-69 100l40 20l113 -8l59 -12l-56 -67zM336 626l27 -20l51 -120l49 -155l19 -106l-3 -129l58 -78l-56 -20l-128 10l-134 4l-45 14l66 92l-10 174l-37 109l-55 95l-62 132l-57 64l78 30l107 10l114 -22l66 -38
l-41 -21z" />
    <glyph glyph-name="z" unicode="z" horiz-adv-x="591" 
d="M565 -5l-10 3l-116 1l-132 16l21 55l131 70l67 108l26 -104zM565 663l-5 2l-47 -105l-42 -125l-47 -95l-58 -121l-39 -108l-56 -124l-135 24l-117 -7l20 61l39 120l47 87l57 107l39 132l35 113l50 103l125 -16l124 22zM45 718v2l134 -7l110 16l-37 -80l-113 -60l-53 -87
l-36 62z" />
    <glyph glyph-name="braceleft" unicode="{" horiz-adv-x="508" 
d="M422 803l-13 9l20 -47l-95 -120l-2 -85l-95 -211l-9 19l90 -204l2 -69l93 -147l5 -23l-155 34l-60 133l15 89l-120 173l-8 30l106 150l11 105l37 114z" />
    <glyph glyph-name="bar" unicode="|" horiz-adv-x="508" 
d="M189 -174l1 -8l-16 133l2 101l20 107l-9 118l-2 87l9 105l-9 132l-14 111l2 103l146 -16l5 -87l10 -115l-16 -117l15 -107l-1 -93l-8 -120l-13 -117l11 -90l-7 -136z" />
    <glyph glyph-name="braceright" unicode="}" horiz-adv-x="508" 
d="M77 765l25 -2l-19 41l160 -32l64 -131l-21 -109l136 -146l8 -40l-131 -157l1 -94l-58 -144l-164 -51l7 72l99 107l7 68l98 215l-3 -2l-109 222l9 64z" />
    <glyph glyph-name="asciitilde" unicode="~" horiz-adv-x="847" 
d="M747 421l14 -1l-14 -152l-183 -76l-126 56l-151 10l-184 -73l-6 157l200 65l133 -13l158 -36z" />
    <glyph glyph-name="FLW130" unicode="&#x201a;" horiz-adv-x="339" 
d="M49 82l1 -14l118 135l121 -157l-39 -119l-129 -54l-37 28l86 78l-36 22z" />
    <glyph glyph-name="quotedblbase" unicode="&#x201e;" horiz-adv-x="582" 
d="M49 82l1 -14l118 135l121 -157l-39 -119l-129 -54l-37 28l86 78l-36 22zM292 78l6 -2l105 117l129 -123l-68 -146l-105 -50l-26 36l78 64l-44 15z" />
    <glyph glyph-name="FLW133" unicode="&#x2026;" horiz-adv-x="1024" 
d="M57 92l22 2l100 97l98 -89l-94 -102zM424 86l-28 2l103 93l110 -76l-90 -127zM749 91l-14 -8l120 115l111 -101l-115 -103z" />
    <glyph glyph-name="FLW134" unicode="&#x2020;" horiz-adv-x="508" 
d="M254 472q-27 0 -47.5 -8t-39 -17t-36 -17t-38.5 -8q-27 0 -44.5 17.5t-17.5 43.5q0 29 19 47t50 18q20 0 37 -7.5t34.5 -16.5t37 -16t45.5 -7t45.5 7t37 16t34.5 16.5t37 7.5q30 0 49.5 -18t19.5 -47q0 -26 -17.5 -43.5t-45.5 -17.5q-18 0 -35 8t-35.5 17t-40.5 17t-49 8
zM268 531h-28q-14 49 -33.5 84t-19.5 60q0 26 18 42t48 16q32 0 49.5 -16t17.5 -42q0 -25 -19 -60t-33 -84zM240 442h31q12 -45 25 -82t32 -68q-16 -50 -27.5 -98.5t-19 -100t-11 -107.5t-3.5 -120h-26q0 128 -15.5 228t-46.5 198q37 60 61 150z" />
    <glyph glyph-name="perthousand" unicode="&#x2030;" horiz-adv-x="1180" 
d="M193 458v-4l1 -62l-120 75l-33 85l52 119l122 58l-3 -59l-27 -35l9 -117zM238 405l-8 -2l19 53l3 45l-5 127l-2 59l-21 31l146 -38l52 -112l-57 -109zM602 747l15 -15l-49 -89l-64 -85l-34 -103l-58 -83l-36 -103l-44 -90l-51 -104l-71 -104l-38 -3l58 91l29 102l48 97
l66 104l24 96l56 92l54 86l54 100zM530 54l-4 -22l15 -48l-140 63l-27 95l48 112l114 62l13 -56l-31 -48l10 -118zM561 -7l10 -3l-1 40l13 56l9 115l-17 42l-22 65l155 -56l20 -117l-44 -100zM953 53l-20 -17l-3 -61l-127 66l-46 103l45 109l147 56l-16 -65l-11 -43
l-11 -107zM972 -23l-5 12l8 48l9 53l19 122l-43 31l25 68l129 -64l29 -109l-30 -100z" />
    <glyph glyph-name="guilsinglleft" unicode="&#x2039;" horiz-adv-x="268" 
d="M25 362l1 -14l68 120l114 121l23 -16l-66 -209l57 -223l-21 -7l-92 146z" />
    <glyph glyph-name="quoteleft" unicode="&#x2018;" horiz-adv-x="339" 
d="M287 527l1 -14l-103 -81l-96 110l54 129l116 69l31 -40l-95 -49l54 -20z" />
    <glyph glyph-name="quoteright" unicode="&#x2019;" horiz-adv-x="339" 
d="M49 627l1 -14l118 135l121 -157l-39 -120l-129 -53l-37 29l86 77l-36 21z" />
    <glyph glyph-name="quotedblleft" unicode="&#x201c;" horiz-adv-x="582" 
d="M264 527l1 -14l-104 -81l-95 110l53 129l117 69l30 -40l-95 -49l55 -20zM506 523l6 -2l-115 -99l-88 144l25 102l140 73l40 -32l-101 -63l46 -27z" />
    <glyph glyph-name="quotedblright" unicode="&#x201d;" horiz-adv-x="582" 
d="M49 627l1 -14l118 135l121 -157l-39 -120l-129 -53l-37 29l86 77l-36 21zM292 623l6 -2l105 117l129 -123l-68 -147l-105 -49l-26 37l78 63l-44 14z" />
    <glyph glyph-name="bullet" unicode="&#x2022;" horiz-adv-x="600" 
d="M167 382l-25 8l162 148l136 -154l-132 -137z" />
    <glyph glyph-name="endash" unicode="&#x2013;" horiz-adv-x="512" 
d="M481 282l-8 -8l-145 17l-128 -6l-166 -19l-37 49l16 93l27 21l157 27l118 -4l156 1l35 -52l15 -62z" />
    <glyph glyph-name="emdash" unicode="&#x2014;" horiz-adv-x="1024" 
d="M993 282l-5 -8l-135 4l-94 -2l-127 17l-131 -7l-104 -18l-106 8h-142l-107 15l-52 37l16 63l41 62l129 -6l91 -19l125 4l133 21l99 -24l133 27l94 -4l132 1l35 -52l15 -62z" />
    <glyph glyph-name="trademark" unicode="&#x2122;" horiz-adv-x="837" 
d="M103 628l6 103h229l6 -103h-20q-3 37 -16.5 56.5t-42.5 20.5v-207q0 -21 13 -24l15 -4v-18h-139v18l16 4q12 3 12 24v207q-54 0 -60 -77h-19zM363 713v18h117l60 -170l55 170h110v-14l-10 -4q-10 -3 -12.5 -8t-2.5 -15v-192q0 -11 2.5 -16t12.5 -8l10 -4v-18h-133v18
l15 4q14 5 14 24v169l-67 -215h-27l-80 222v-176q0 -21 14 -24l19 -4v-18h-97v18l17 4q16 3 16 24v187q0 21 -16 24z" />
    <glyph glyph-name="guilsinglright" unicode="&#x203a;" horiz-adv-x="268" 
d="M245 363l-17 -12l-45 -72l-119 -169v48l38 213l-45 218l6 14l116 -135z" />
    <glyph glyph-name="currency" unicode="&#xa4;" horiz-adv-x="616" 
d="M25 657l68 66l99 -99q49 34 116 34q68 0 118 -34l100 99l66 -66l-99 -102q32 -52 32 -114q0 -63 -32 -115l99 -101l-66 -67l-100 100q-53 -35 -117 -35t-117 35l-99 -100l-68 67l99 101q-31 52 -31 116t31 113zM309 561q-25 0 -46.5 -9.5t-38 -26t-26 -38.5t-9.5 -46
q0 -50 35 -85.5t85 -35.5q25 0 46.5 9.5t38 26t26 38.5t9.5 47q0 49 -35.5 84.5t-84.5 35.5z" />
    <glyph glyph-name="brokenbar" unicode="&#xa6;" horiz-adv-x="508" 
d="M199 339l-17 -12l16 147l-18 101l16 153l117 -4l15 -125l-10 -132l15 -116zM174 -187l13 2l11 134l-26 125l10 141l132 -8l16 -135l-4 -108l12 -132z" />
    <glyph glyph-name="section" unicode="&#xa7;" horiz-adv-x="508" 
d="M281 -122l-8 -8l-4 55l70 40l-133 106l-91 79l-85 179l75 103l51 -4l-44 -37l77 -82l108 -99l154 -182zM227 736l12 -12l2 -21l-52 -70l117 -115l79 -70l119 -157l-98 -112l-50 23l33 14l-67 108l-109 64l-149 213zM266 689l-5 16l20 39l148 -130l-63 -54l-97 34l66 84z
M248 -81l-25 -19l14 17l-6 -28l-184 95l87 68l65 -45l-18 -77z" />
    <glyph glyph-name="afii10023" unicode="&#x401;" horiz-adv-x="625" 
d="M174 828l-25 8l83 69l59 -75l-54 -59zM359 840l-22 -28l76 72l85 -47l-87 -93zM369 660l-12 -17l11 74h83l120 15l-7 -200l-13 -39l-62 98zM310 7l7 -15l-134 12l-105 -12l-36 44l33 84l20 127l-20 107l15 138l-23 107l-25 99l27 15l129 -1l127 15l-2 -138l7 -114
l-18 -116l22 -122l-10 -103zM573 -4l21 2l-129 15l-114 -5l1 64l131 59l63 103l29 -65zM352 353l17 -5l-5 46l57 43l42 72l16 -41l-11 -204l-5 -31z" />
    <glyph glyph-name="copyright" unicode="&#xa9;" horiz-adv-x="836" 
d="M419 716q80 0 148.5 -30.5t119 -82t79 -120.5t28.5 -145t-29.5 -144.5t-80.5 -120.5t-119.5 -82.5t-146.5 -30.5q-77 0 -145.5 30t-119.5 81.5t-81 120.5t-30 146q0 75 27.5 143t77 120.5t119 83.5t153.5 31zM418 654q-71 0 -129 -26t-99.5 -69.5t-64 -100.5t-22.5 -120
q0 -66 25 -123.5t68 -100t100.5 -67.5t121.5 -25q65 0 122.5 25.5t100 69t67 101t24.5 120.5q0 64 -23 121t-64 100.5t-99 69t-128 25.5zM562 554h27v-169h-27q-16 66 -50 100t-80 34q-104 0 -104 -178q0 -91 29.5 -138.5t83.5 -47.5q73 0 131 88l27 -18q-68 -110 -182 -110
q-48 0 -88.5 16.5t-70 46t-46.5 70t-17 87.5t17 87t46.5 69.5t70.5 46t89 16.5q27 0 46.5 -5.5t33 -12t22.5 -12t15 -5.5q21 0 27 35z" />
    <glyph glyph-name="guillemotleft" unicode="&#xab;" horiz-adv-x="424" 
d="M35 370l8 -7l70 89l81 156l10 -35l-51 -201l56 -215l-13 -31l-99 153zM198 362l9 11l46 70l97 146l26 -24l-71 -206l67 -227l-3 2l-125 119z" />
    <glyph glyph-name="logicalnot" unicode="&#xac;" horiz-adv-x="847" 
d="M126 300v132h595v-249h-135v117h-460z" />
    <glyph glyph-name="registered" unicode="&#xae;" horiz-adv-x="836" 
d="M418 716q76 0 144.5 -30t120 -82t81.5 -120.5t30 -145.5t-29.5 -146t-80.5 -120.5t-119.5 -81.5t-147.5 -30t-148 30.5t-119 82.5t-79 120.5t-29 144.5q0 75 28.5 143t79 120.5t119 83.5t149.5 31zM418 654q-67 0 -124.5 -26t-100 -69.5t-66.5 -100.5t-24 -120
q0 -65 25 -122.5t67.5 -100.5t99.5 -68t122 -25q67 0 124.5 25.5t100 69t66.5 101t24 120.5q0 64 -24 121t-66 100.5t-99.5 69t-124.5 25.5zM229 518v31h203q78 0 121 -24.5t43 -76.5q0 -42 -29 -66.5t-88 -36.5v-4q57 -11 76.5 -41.5t19.5 -76.5v-23q0 -32 17 -32
q25 0 25 62v6h31v-17q0 -87 -96 -87q-55 0 -72 28t-21 87q-3 44 -17.5 65t-45.5 21h-5v-121q0 -21 7 -30.5t29 -13.5v-29h-198v29q24 2 34 12t10 32v263q0 23 -9.5 31.5t-34.5 11.5zM391 489v-127h16q72 0 72 85q0 31 -15.5 51t-42.5 20q-30 0 -30 -29z" />
    <glyph glyph-name="degree" unicode="&#xb0;" horiz-adv-x="336" 
d="M166 743v2l155 -159l-156 -170l-159 168zM156 645l17 6l-74 -75l84 -80l56 87z" />
    <glyph glyph-name="plusminus" unicode="&#xb1;" horiz-adv-x="837" 
d="M349 230v109h-178q-19 0 -32 13t-13 32v45q0 19 13 32t32 13h178v109q0 19 13 32t32 13h49q19 0 32 -13t13 -32v-109h178q19 0 32 -13t13 -32v-45q0 -19 -13 -32t-32 -13h-178v-109q0 -19 -13 -32t-32 -13h-49q-19 0 -32 13t-13 32zM126 25v45q0 19 13 32t32 13h495
q19 0 32 -13t13 -32v-45q0 -19 -13 -32t-32 -13h-495q-19 0 -32 13t-13 32z" />
    <glyph glyph-name="mu" unicode="&#xb5;" horiz-adv-x="631" 
d="M133 122q-11 -74 -15 -126.5t-9 -81.5q-7 -48 -23 -68t-53 -20q-31 0 -50 19t-19 52q0 19 8.5 48.5t21.5 71t28.5 94t29.5 117.5l53 252h167l-58 -271q-4 -17 -6 -30.5t-2 -24.5q0 -24 12.5 -37t32.5 -13q30 0 46.5 28t29.5 88l57 260h166l-55 -256q-2 -11 -3 -20.5
t-1 -16.5q0 -45 39 -45q16 0 26.5 11t19.5 24.5t17.5 24.5t20.5 11q18 0 18 -20q0 -7 -6.5 -30t-20.5 -50q-46 -85 -126 -85q-90 0 -96 97q-39 -95 -137 -95q-49 0 -78.5 24t-34.5 68z" />
    <glyph glyph-name="paragraph" unicode="&#xb6;" horiz-adv-x="508" 
d="M198 736h305v-70h-49v-666h-101v666h-69v-666h-101v391q-83 4 -130.5 51.5t-47.5 120.5q0 77 52 125t141 48z" />
    <glyph glyph-name="periodcentered" unicode="&#x2219;" horiz-adv-x="313" 
d="M51 366v2l99 105l106 -113l-101 -95z" />
    <glyph glyph-name="afii10071" unicode="&#x451;" horiz-adv-x="625" 
d="M157 835v2l64 70l73 -78l-68 -61zM336 821l17 6l68 69l78 -72l-88 -58zM345 640l24 27l-15 43l105 1l120 -3l-11 -181l-22 -40l-45 104zM331 3l-10 -3h-127l-116 7l-37 13l45 102l-3 107l-4 145l2 112l-6 111l-40 97l24 37l145 -25l128 1l-25 -95l23 -142l-19 -112
l18 -128l-1 -109zM585 5l-8 -12l-115 6l-115 -2l23 70l112 65l53 93l33 -66zM353 338l-9 -4l1 56l49 44l46 71l39 -33l8 -186l-29 -57z" />
    <glyph glyph-name="afii61352" unicode="&#x2116;" horiz-adv-x="1052" 
d="M89 200l-3 -11l7 113l13 147l-24 97l72 -84v-145l9 -151l6 -68l52 -69l-34 -17l-143 2l-39 23l61 63zM601 518l3 -2l3 -115l-25 -91l-35 78l-19 140l-6 94l-60 66l44 35l145 10l27 -56l-64 -54zM585 252l7 -18l-2 -115l-2 -122l-126 4l-87 92l-60 112l-63 114l-44 105
l-64 100l-63 105l-66 71l46 10l127 21l133 -18l51 -75l58 -108l49 -109l70 -81zM821 187l14 15l-26 -63l-118 83l-57 130l48 135l127 56v-29l-16 -28l8 -122l-1 -124zM836 144l19 7l-4 31l10 69l7 115l14 96l-22 61l-4 42l111 -70l62 -129l-45 -149zM678 27l7 21l-23 -1
l55 62l132 -25l128 1l26 -26l-8 -23l-33 -37l-119 -3l-129 -2z" />
    <glyph glyph-name="guillemotright" unicode="&#xbb;" horiz-adv-x="424" 
d="M225 372l20 -7l-73 -103l-91 -133l-14 29l54 192l-77 226l15 18l107 -127zM393 350l-14 17l-61 -88l-89 -154l-8 25l57 208l-76 225l9 2l116 -141z" />
    <glyph glyph-name="Agrave" unicode="&#xc0;" horiz-adv-x="732" 
d="M124 180l11 -9l38 113l25 99l14 117l21 90l46 -119l-26 -112l-22 -95l-42 -121l5 -19l70 -77l-56 -57l-142 9l-49 28l55 57zM390 122l2 -20l-1 77l-163 11l25 63l94 14l-31 111l-8 154l-42 129l17 72l111 -24l96 3l33 -127l24 -100l34 -128l28 -136l24 -111l47 -50
l23 -31l-68 -23l-119 -20l-116 24l-51 31z" />
    <glyph glyph-name="Agrave" unicode="&#x410;" horiz-adv-x="732" 
d="M124 180l11 -9l38 113l25 99l14 117l21 90l46 -119l-26 -112l-22 -95l-42 -121l5 -19l70 -77l-56 -57l-142 9l-49 28l55 57zM390 122l2 -20l-1 77l-163 11l25 63l94 14l-31 111l-8 154l-42 129l17 72l111 -24l96 3l33 -127l24 -100l34 -128l28 -136l24 -111l47 -50
l23 -31l-68 -23l-119 -20l-116 24l-51 31z" />
    <glyph glyph-name="Aacute" unicode="&#xc1;" horiz-adv-x="685" 
d="M65 732l-7 -2l131 -3l127 5l11 -129l9 -116l-4 -129l-15 -112l-8 -139l16 -116l-122 -1l-118 15l-55 20l64 93l2 133l-6 99l-17 133l-1 122l-48 100zM361 -14l27 22l-30 -7l-1 74l68 65l-11 144l-61 86l-6 82l25 -6l150 -40l87 -63l56 -131l-46 -116l-103 -65zM341 648
l6 11v76l125 -23l140 7l-14 -139l-29 -82l-72 101z" />
    <glyph glyph-name="Aacute" unicode="&#x411;" horiz-adv-x="685" 
d="M65 732l-7 -2l131 -3l127 5l11 -129l9 -116l-4 -129l-15 -112l-8 -139l16 -116l-122 -1l-118 15l-55 20l64 93l2 133l-6 99l-17 133l-1 122l-48 100zM361 -14l27 22l-30 -7l-1 74l68 65l-11 144l-61 86l-6 82l25 -6l150 -40l87 -63l56 -131l-46 -116l-103 -65zM341 648
l6 11v76l125 -23l140 7l-14 -139l-29 -82l-72 101z" />
    <glyph glyph-name="Acircumflex" unicode="&#xc2;" horiz-adv-x="713" 
d="M316 12l-7 -2l-120 -3l-124 5l-32 21l63 85l-4 116l-15 132l-8 105l16 129l-50 81l50 44l113 -10l136 12l2 -112l-6 -145l-17 -111l-1 -123l6 -102zM378 -14l7 14l-38 15l2 38l92 98l-14 116l-69 80l-19 75l77 66l26 88l-84 84l-1 73l47 -24l189 -38l68 -143l-52 -92
l-127 -57l-2 -18l133 -45l73 -133l-46 -103l-102 -54z" />
    <glyph glyph-name="Acircumflex" unicode="&#x412;" horiz-adv-x="713" 
d="M316 12l-7 -2l-120 -3l-124 5l-32 21l63 85l-4 116l-15 132l-8 105l16 129l-50 81l50 44l113 -10l136 12l2 -112l-6 -145l-17 -111l-1 -123l6 -102zM378 -14l7 14l-38 15l2 38l92 98l-14 116l-69 80l-19 75l77 66l26 88l-84 84l-1 73l47 -24l189 -38l68 -143l-52 -92
l-127 -57l-2 -18l133 -45l73 -133l-46 -103l-102 -54z" />
    <glyph glyph-name="Atilde" unicode="&#xc3;" horiz-adv-x="631" 
d="M350 669l8 -17l10 75l112 8l103 -25l-17 -182l-30 -35l-52 100zM85 725l-14 -18l119 21l130 -6l-2 -137l-6 -111l25 -129l-15 -115l-10 -113l62 -102l-51 -5l-126 -3l-132 5l-32 21l63 85l-4 116l-15 132l-8 105l16 129l-50 81z" />
    <glyph glyph-name="Atilde" unicode="&#x413;" horiz-adv-x="631" 
d="M350 669l8 -17l10 75l112 8l103 -25l-17 -182l-30 -35l-52 100zM85 725l-14 -18l119 21l130 -6l-2 -137l-6 -111l25 -129l-15 -115l-10 -113l62 -102l-51 -5l-126 -3l-132 5l-32 21l63 85l-4 116l-15 132l-8 105l16 129l-50 81z" />
    <glyph glyph-name="Adieresis" unicode="&#xc4;" horiz-adv-x="719" 
d="M492 12l6 -15l-125 9l-3 100v144l6 117l1 125l11 111l9 124l121 -9l111 8l35 -49l-38 -77l4 -126l7 -109l-12 -134l10 -113l52 -40l28 -88l-17 -119l-34 -35l-48 100zM368 53l-3 -1l-18 -55l-159 8l-97 -81l-50 -83l-47 31v141l53 42l104 160l-14 168l6 147l-73 141
l-34 5l63 52l125 -7l133 12l4 -87l-98 3l-68 -106l-6 -96l4 -123l-2 -132l-36 -131z" />
    <glyph glyph-name="Adieresis" unicode="&#x414;" horiz-adv-x="719" 
d="M492 12l6 -15l-125 9l-3 100v144l6 117l1 125l11 111l9 124l121 -9l111 8l35 -49l-38 -77l4 -126l7 -109l-12 -134l10 -113l52 -40l28 -88l-17 -119l-34 -35l-48 100zM368 53l-3 -1l-18 -55l-159 8l-97 -81l-50 -83l-47 31v141l53 42l104 160l-14 168l6 147l-73 141
l-34 5l63 52l125 -7l133 12l4 -87l-98 3l-68 -106l-6 -96l4 -123l-2 -132l-36 -131z" />
    <glyph glyph-name="Aring" unicode="&#xc5;" horiz-adv-x="636" 
d="M350 666l8 -17l10 78l112 8l103 -25l-17 -183l-30 -33l-52 99zM336 5l-20 3l-122 -6l-127 -15l-49 41l79 73l-15 132l-10 133l-3 104v149l-48 79l44 34l136 -9l135 4l-4 -129l-15 -112l-8 -139l16 -116l4 -121zM582 -13l-14 27l-111 -25l-87 19l-9 59l137 90l57 62
l24 -72zM361 338l-1 2l4 65l39 42l46 82l30 -78l17 -174l-42 -40z" />
    <glyph glyph-name="Aring" unicode="&#x415;" horiz-adv-x="636" 
d="M350 666l8 -17l10 78l112 8l103 -25l-17 -183l-30 -33l-52 99zM336 5l-20 3l-122 -6l-127 -15l-49 41l79 73l-15 132l-10 133l-3 104v149l-48 79l44 34l136 -9l135 4l-4 -129l-15 -112l-8 -139l16 -116l4 -121zM582 -13l-14 27l-111 -25l-87 19l-9 59l137 90l57 62
l24 -72zM361 338l-1 2l4 65l39 42l46 82l30 -78l17 -174l-42 -40z" />
    <glyph glyph-name="AE" unicode="&#xc6;" horiz-adv-x="1099" 
d="M658 5l4 -7l-123 5l-119 8l-23 14l45 81l-12 123l9 123l13 139l-23 119l-45 89l55 16l125 2l104 -6l54 -11l-52 -85l1 -123l4 -136l-20 -135l12 -132l45 -60zM1036 -8l-2 7l-118 15l-122 -16l-42 33l26 58l-11 24l-65 155l-5 86l25 58l90 119l45 91l-74 55l60 29l173 8
l23 -30l-37 -51l-143 -131l49 -108l47 -82l35 -112l43 -94l43 -60zM322 -2l-13 12l-128 -3l-121 -3l-38 25l49 68l23 92l56 108l40 114l30 104l-115 113l-62 65l46 20l178 5l54 -37l-67 -61l11 -79l124 -123l3 -82l9 -62l-75 -170l-2 -30l26 -51z" />
    <glyph glyph-name="AE" unicode="&#x416;" horiz-adv-x="1099" 
d="M658 5l4 -7l-123 5l-119 8l-23 14l45 81l-12 123l9 123l13 139l-23 119l-45 89l55 16l125 2l104 -6l54 -11l-52 -85l1 -123l4 -136l-20 -135l12 -132l45 -60zM1036 -8l-2 7l-118 15l-122 -16l-42 33l26 58l-11 24l-65 155l-5 86l25 58l90 119l45 91l-74 55l60 29l173 8
l23 -30l-37 -51l-143 -131l49 -108l47 -82l35 -112l43 -94l43 -60zM322 -2l-13 12l-128 -3l-121 -3l-38 25l49 68l23 92l56 108l40 114l30 104l-115 113l-62 65l46 20l178 5l54 -37l-67 -61l11 -79l124 -123l3 -82l9 -62l-75 -170l-2 -30l26 -51z" />
    <glyph glyph-name="Ccedilla" unicode="&#xc7;" horiz-adv-x="646" 
d="M296 -8l4 -7l-8 68l55 101l12 122l-69 72l-95 27l92 30l89 85l-23 92l-49 96l13 50l167 -22l69 -73l39 -87l-162 -162h1l134 -67l32 -134l-25 -116l-97 -53zM263 725l17 1l-13 -58l-60 -39l34 -53l-91 -92l-93 104l56 122zM261 47l13 8l-3 -64l-181 35l-50 134l96 82
l103 -88l-43 -74z" />
    <glyph glyph-name="Ccedilla" unicode="&#x417;" horiz-adv-x="646" 
d="M296 -8l4 -7l-8 68l55 101l12 122l-69 72l-95 27l92 30l89 85l-23 92l-49 96l13 50l167 -22l69 -73l39 -87l-162 -162h1l134 -67l32 -134l-25 -116l-97 -53zM263 725l17 1l-13 -58l-60 -39l34 -53l-91 -92l-93 104l56 122zM261 47l13 8l-3 -64l-181 35l-50 134l96 82
l103 -88l-43 -74z" />
    <glyph glyph-name="Egrave" unicode="&#xc8;" horiz-adv-x="756" 
d="M450 725l4 -7l119 5l124 8l55 -42l-47 -77l-12 -129l9 -127l13 -111l-23 -133l63 -75l-30 -42l-127 2l-147 -6l-23 43l40 72l1 133l4 119l-20 121l12 124l-31 94zM419 494h13l-12 -148l-34 -88l-76 -97l12 -47l45 -99l-30 -19l-139 11l-132 -4l-48 14l65 99l-3 126
l-6 111l11 144l-5 109l-43 70l42 38l107 3l146 -4l21 -21l-30 -82l4 -136l-7 -167l3 7l39 106z" />
    <glyph glyph-name="Egrave" unicode="&#x418;" horiz-adv-x="756" 
d="M450 725l4 -7l119 5l124 8l55 -42l-47 -77l-12 -129l9 -127l13 -111l-23 -133l63 -75l-30 -42l-127 2l-147 -6l-23 43l40 72l1 133l4 119l-20 121l12 124l-31 94zM419 494h13l-12 -148l-34 -88l-76 -97l12 -47l45 -99l-30 -19l-139 11l-132 -4l-48 14l65 99l-3 126
l-6 111l11 144l-5 109l-43 70l42 38l107 3l146 -4l21 -21l-30 -82l4 -136l-7 -167l3 7l39 106z" />
    <glyph glyph-name="Eacute" unicode="&#xc9;" horiz-adv-x="756" 
d="M450 725l4 -7l119 5l124 8l55 -42l-47 -77l-12 -129l9 -127l13 -111l-23 -133l63 -75l-30 -42l-127 2l-147 -6l-23 43l40 72l1 133l4 119l-20 121l12 124l-31 94zM419 494h13l-12 -148l-34 -88l-76 -97l12 -47l45 -99l-30 -19l-139 11l-132 -4l-48 14l65 99l-3 126
l-6 111l11 144l-5 109l-43 70l42 38l107 3l146 -4l21 -21l-30 -82l4 -136l-7 -167l3 7l39 106zM413 744l-1 14l-58 3l-112 63l77 123l14 -30l-27 -44l69 -46l48 12l41 35l-3 60l-14 -6l108 -98z" />
    <glyph glyph-name="Eacute" unicode="&#x419;" horiz-adv-x="756" 
d="M450 725l4 -7l119 5l124 8l55 -42l-47 -77l-12 -129l9 -127l13 -111l-23 -133l63 -75l-30 -42l-127 2l-147 -6l-23 43l40 72l1 133l4 119l-20 121l12 124l-31 94zM419 494h13l-12 -148l-34 -88l-76 -97l12 -47l45 -99l-30 -19l-139 11l-132 -4l-48 14l65 99l-3 126
l-6 111l11 144l-5 109l-43 70l42 38l107 3l146 -4l21 -21l-30 -82l4 -136l-7 -167l3 7l39 106zM413 744l-1 14l-58 3l-112 63l77 123l14 -30l-27 -44l69 -46l48 12l41 35l-3 60l-14 -6l108 -98z" />
    <glyph glyph-name="Ecircumflex" unicode="&#xca;" horiz-adv-x="761" 
d="M318 5l4 -7l-135 5l-130 8l-31 18l61 85l-12 121l9 121l13 137l-23 117l-45 89l56 16l131 2l112 -6l54 -11l-52 -85l1 -123l4 -136l-20 -135l12 -132l45 -60zM507 485l-2 7l56 -83l52 -114l49 -99l32 -87l51 -74l-49 -47l-119 17l-132 -1l-53 20l49 65l-11 16l-49 161
l-19 77l9 63l116 129l21 78l-62 65l53 51l167 -12l44 -26l-69 -37z" />
    <glyph glyph-name="Ecircumflex" unicode="&#x41a;" horiz-adv-x="761" 
d="M318 5l4 -7l-135 5l-130 8l-31 18l61 85l-12 121l9 121l13 137l-23 117l-45 89l56 16l131 2l112 -6l54 -11l-52 -85l1 -123l4 -136l-20 -135l12 -132l45 -60zM507 485l-2 7l56 -83l52 -114l49 -99l32 -87l51 -74l-49 -47l-119 17l-132 -1l-53 20l49 65l-11 16l-49 161
l-19 77l9 63l116 129l21 78l-62 65l53 51l167 -12l44 -26l-69 -37z" />
    <glyph glyph-name="Edieresis" unicode="&#xcb;" horiz-adv-x="749" 
d="M385 725l4 -7l-8 -58l-62 8l-76 -113l7 -130l-12 -139l9 -137l-117 -147l-154 103l93 100l92 -81l-2 -71l23 103l12 140l2 118l1 126l-56 117l-62 21l55 28l138 17zM412 103l22 4l-12 133l-5 118l-5 106l11 139l-3 121l120 -15l136 18l38 -47l-43 -79l-1 -120l-20 -125
l19 -132l-13 -123l65 -81l-43 -11l-138 -12l-130 7l-57 40z" />
    <glyph glyph-name="Edieresis" unicode="&#x41b;" horiz-adv-x="749" 
d="M385 725l4 -7l-8 -58l-62 8l-76 -113l7 -130l-12 -139l9 -137l-117 -147l-154 103l93 100l92 -81l-2 -71l23 103l12 140l2 118l1 126l-56 117l-62 21l55 28l138 17zM412 103l22 4l-12 133l-5 118l-5 106l11 139l-3 121l120 -15l136 18l38 -47l-43 -79l-1 -120l-20 -125
l19 -132l-13 -123l65 -81l-43 -11l-138 -12l-130 7l-57 40z" />
    <glyph glyph-name="Igrave" unicode="&#xcc;" horiz-adv-x="807" 
d="M89 517l22 4l-21 -8l64 -161l13 -190l25 -77l39 -61l-31 -15l-137 -3l-42 37l54 36l14 102l12 102l7 125zM454 412l-10 -7l-20 -86l-35 -122l-20 -107l-32 -96l-51 3l-21 115l-53 124l-32 112l-36 138l-47 107l-52 75l-47 40l43 4l133 6l118 5l45 -134l60 -154l58 181
l-10 -4zM482 115l4 -6l5 117l2 134l-23 115l28 133l-25 99l151 7h110l47 -31l-66 -80l19 -118l-22 -127l12 -113l7 -144l59 -75l-55 -19l-136 -4l-136 -15l-33 47z" />
    <glyph glyph-name="Igrave" unicode="&#x41c;" horiz-adv-x="807" 
d="M89 517l22 4l-21 -8l64 -161l13 -190l25 -77l39 -61l-31 -15l-137 -3l-42 37l54 36l14 102l12 102l7 125zM454 412l-10 -7l-20 -86l-35 -122l-20 -107l-32 -96l-51 3l-21 115l-53 124l-32 112l-36 138l-47 107l-52 75l-47 40l43 4l133 6l118 5l45 -134l60 -154l58 181
l-10 -4zM482 115l4 -6l5 117l2 134l-23 115l28 133l-25 99l151 7h110l47 -31l-66 -80l19 -118l-22 -127l12 -113l7 -144l59 -75l-55 -19l-136 -4l-136 -15l-33 47z" />
    <glyph glyph-name="Iacute" unicode="&#xcd;" horiz-adv-x="756" 
d="M315 7l19 7l-137 -26l-132 1l-30 33l47 84l3 141l9 128l-11 118l-15 104l-37 107l37 17l116 14l144 -22l27 -13l-38 -78l10 -132l-11 -120l-2 -132l5 -127l52 -80zM353 333l7 12l7 65l78 -17l-13 118l-12 118l-20 70l34 12l122 21l128 2l49 -39l-61 -90l8 -117v-146
l5 -117l2 -128l36 -53l-28 -47l-152 14l-106 -23l-47 33l56 76l-10 114l-11 145z" />
    <glyph glyph-name="Iacute" unicode="&#x41d;" horiz-adv-x="756" 
d="M315 7l19 7l-137 -26l-132 1l-30 33l47 84l3 141l9 128l-11 118l-15 104l-37 107l37 17l116 14l144 -22l27 -13l-38 -78l10 -132l-11 -120l-2 -132l5 -127l52 -80zM353 333l7 12l7 65l78 -17l-13 118l-12 118l-20 70l34 12l122 21l128 2l49 -39l-61 -90l8 -117v-146
l5 -117l2 -128l36 -53l-28 -47l-152 14l-106 -23l-47 33l56 76l-10 114l-11 145z" />
    <glyph glyph-name="Icircumflex" unicode="&#xce;" horiz-adv-x="714" 
d="M332 55l10 -12l3 -45l-119 37l-107 70l-76 93l-4 175l15 137l49 129l114 53l120 46v-64l-40 -98l-11 -100l-2 -110l5 -106l14 -112zM379 -21v14v41l54 104l2 108l-18 128l15 91l-25 123l-28 72l-13 68l148 -32l86 -82l49 -91l29 -172l-12 -126l-70 -141l-101 -74z" />
    <glyph glyph-name="Icircumflex" unicode="&#x41e;" horiz-adv-x="714" 
d="M332 55l10 -12l3 -45l-119 37l-107 70l-76 93l-4 175l15 137l49 129l114 53l120 46v-64l-40 -98l-11 -100l-2 -110l5 -106l14 -112zM379 -21v14v41l54 104l2 108l-18 128l15 91l-25 123l-28 72l-13 68l148 -32l86 -82l49 -91l29 -172l-12 -126l-70 -141l-101 -74z" />
    <glyph glyph-name="Idieresis" unicode="&#xcf;" horiz-adv-x="756" 
d="M315 7l9 -19l-132 1l-114 3l-50 33l57 97l9 129l-11 118l-15 103l17 150l-60 70l32 43l142 -22l118 12v-126l10 -127l-11 -114l-2 -126l5 -121l52 -80zM442 114l3 -26l-13 122l-12 122l18 98l-1 107l-5 132l-82 2l6 53l104 -8l120 10l111 -20l48 -20l-52 -83l-18 -107
l15 -143l-25 -112l21 -150l41 -66l-24 -28l-137 -7l-138 24l-26 3z" />
    <glyph glyph-name="Idieresis" unicode="&#x41f;" horiz-adv-x="756" 
d="M315 7l9 -19l-132 1l-114 3l-50 33l57 97l9 129l-11 118l-15 103l17 150l-60 70l32 43l142 -22l118 12v-126l10 -127l-11 -114l-2 -126l5 -121l52 -80zM442 114l3 -26l-13 122l-12 122l18 98l-1 107l-5 132l-82 2l6 53l104 -8l120 10l111 -20l48 -20l-52 -83l-18 -107
l15 -143l-25 -112l21 -150l41 -66l-24 -28l-137 -7l-138 24l-26 3z" />
    <glyph glyph-name="Eth" unicode="&#xd0;" horiz-adv-x="685" 
d="M61 727l9 -19l120 1l139 3l-7 -119l3 -106l9 -117l-11 -128l-15 -143l82 -57l-57 -41l-143 14l-116 -22l-51 42l54 78l10 122l-11 133l-2 122l5 127l-40 79zM383 290l-2 -8l-21 -20l5 71l66 88l-18 161l-49 74l-25 75l42 -23l139 -18l112 -72l21 -130l-42 -99l-85 -97z
" />
    <glyph glyph-name="Eth" unicode="&#x420;" horiz-adv-x="685" 
d="M61 727l9 -19l120 1l139 3l-7 -119l3 -106l9 -117l-11 -128l-15 -143l82 -57l-57 -41l-143 14l-116 -22l-51 42l54 78l10 122l-11 133l-2 122l5 127l-40 79zM383 290l-2 -8l-21 -20l5 71l66 88l-18 161l-49 74l-25 75l42 -23l139 -18l112 -72l21 -130l-42 -99l-85 -97z
" />
    <glyph glyph-name="Ntilde" unicode="&#xd1;" horiz-adv-x="658" 
d="M369 669l13 -14l-8 83l133 -41l64 30l18 -27l-2 -197l-27 -55l-49 108zM365 2l17 -4l9 75l108 53l49 75l50 -13l-56 -123zM349 53l7 -9l5 -62l-128 30l-116 95l-48 98l-47 166l42 129l49 121l117 77l122 25l-11 -47l-54 -113l9 -83l-10 -132l-5 -105l13 -103z" />
    <glyph glyph-name="Ntilde" unicode="&#x421;" horiz-adv-x="658" 
d="M369 669l13 -14l-8 83l133 -41l64 30l18 -27l-2 -197l-27 -55l-49 108zM365 2l17 -4l9 75l108 53l49 75l50 -13l-56 -123zM349 53l7 -9l5 -62l-128 30l-116 95l-48 98l-47 166l42 129l49 121l117 77l122 25l-11 -47l-54 -113l9 -83l-10 -132l-5 -105l13 -103z" />
    <glyph glyph-name="Ograve" unicode="&#xd2;" horiz-adv-x="672" 
d="M26 528l5 -5l10 196l133 9l-2 -70l-61 -112l-29 -74zM486 725l17 10l134 -6l-15 -129l17 -82l-42 -50l-54 85l-49 92zM223 731l4 -5l120 -20l126 9l2 -125l-18 -104l15 -142l-25 -110l21 -147l51 -63l-32 -27l-144 -7l-145 24l-42 6l73 100l-10 97l-5 124l13 125l-7 126z
" />
    <glyph glyph-name="Ograve" unicode="&#x422;" horiz-adv-x="672" 
d="M26 528l5 -5l10 196l133 9l-2 -70l-61 -112l-29 -74zM486 725l17 10l134 -6l-15 -129l17 -82l-42 -50l-54 85l-49 92zM223 731l4 -5l120 -20l126 9l2 -125l-18 -104l15 -142l-25 -110l21 -147l51 -63l-32 -27l-144 -7l-145 24l-42 6l73 100l-10 97l-5 124l13 125l-7 126z
" />
    <glyph glyph-name="Oacute" unicode="&#xd3;" horiz-adv-x="699" 
d="M581 579l-4 8l-63 -191l-42 71l47 104l20 36l-76 89l48 30l137 2l53 -33zM83 721l10 -13l108 7l140 2l50 -42l-45 -26l17 -52l75 -95l56 -143l-65 -127l-48 -125l-65 107l-55 120l-49 108l-69 98l-73 83l-42 78zM277 102l13 1l34 54l40 -69l-12 -17l-131 -78l-126 98
l95 93l74 -67l-30 -28l30 -33z" />
    <glyph glyph-name="Oacute" unicode="&#x423;" horiz-adv-x="699" 
d="M581 579l-4 8l-63 -191l-42 71l47 104l20 36l-76 89l48 30l137 2l53 -33zM83 721l10 -13l108 7l140 2l50 -42l-45 -26l17 -52l75 -95l56 -143l-65 -127l-48 -125l-65 107l-55 120l-49 108l-69 98l-73 83l-42 78zM277 102l13 1l34 54l40 -69l-12 -17l-131 -78l-126 98
l95 93l74 -67l-30 -28l30 -33z" />
    <glyph glyph-name="Ocircumflex" unicode="&#xd4;" horiz-adv-x="962" 
d="M351 118l19 7l-10 99l-5 125l13 127l-7 128l-51 98l52 33l121 -6l116 -21l60 -4l-61 -94l-11 -111l17 -146l-8 -112v-128l65 -84l-54 -21l-133 -2l-127 2l-29 27zM632 520l-1 5l8 71l21 -20l158 -17l94 -76l13 -102l-16 -139l-118 -61l-131 -48l-34 7l19 63l54 84
l-11 165zM315 594l-16 7l41 3l-20 -88l-49 -72l2 -144l71 -89l-2 -78l-34 11l-164 35l-75 62l-32 117l26 143l93 77z" />
    <glyph glyph-name="Ocircumflex" unicode="&#x424;" horiz-adv-x="962" 
d="M351 118l19 7l-10 99l-5 125l13 127l-7 128l-51 98l52 33l121 -6l116 -21l60 -4l-61 -94l-11 -111l17 -146l-8 -112v-128l65 -84l-54 -21l-133 -2l-127 2l-29 27zM632 520l-1 5l8 71l21 -20l158 -17l94 -76l13 -102l-16 -139l-118 -61l-131 -48l-34 7l19 63l54 84
l-11 165zM315 594l-16 7l41 3l-20 -88l-49 -72l2 -144l71 -89l-2 -78l-34 11l-164 35l-75 62l-32 117l26 143l93 77z" />
    <glyph glyph-name="Otilde" unicode="&#xd5;" horiz-adv-x="693" 
d="M152 172v-3l71 99l37 -57l-54 -72l-16 -43l76 -54l-73 -33l-101 -1l-58 30l46 36zM625 13l-28 -14l-113 12l-120 -21l-70 32l46 64l-18 34l-53 99l-49 90l-29 116l-65 102l-46 87l-63 83l41 36l129 -4l132 -19l56 -10l-30 -45l23 -23l25 -132l48 -100l75 -86l30 -116
l65 -91l64 -63zM529 576l3 -1l-83 -101l-11 55l25 63l-8 29l-57 81l49 6l158 23l39 -46z" />
    <glyph glyph-name="Otilde" unicode="&#x425;" horiz-adv-x="693" 
d="M152 172v-3l71 99l37 -57l-54 -72l-16 -43l76 -54l-73 -33l-101 -1l-58 30l46 36zM625 13l-28 -14l-113 12l-120 -21l-70 32l46 64l-18 34l-53 99l-49 90l-29 116l-65 102l-46 87l-63 83l41 36l129 -4l132 -19l56 -10l-30 -45l23 -23l25 -132l48 -100l75 -86l30 -116
l65 -91l64 -63zM529 576l3 -1l-83 -101l-11 55l25 63l-8 29l-57 81l49 6l158 23l39 -46z" />
    <glyph glyph-name="Odieresis" unicode="&#xd6;" horiz-adv-x="768" 
d="M435 733l-12 -4l134 -19l133 17l42 -32l-42 -71l-26 -154l-3 -122l25 -107l-21 -139l64 -36l41 9l4 -190l-45 -35l-54 72l-114 83l-131 -13l-1 126l18 139l-10 122l8 123l-9 122l-39 72zM311 633l20 -21l-16 -106l20 -119l-3 -94l-20 -125l-1 -96l88 -21l3 -40l-97 -20
l-117 2l-128 6l-30 41l59 61l-17 126l11 143l-10 133l-2 122l-52 60l64 42l113 -1l132 -17l23 -8z" />
    <glyph glyph-name="Odieresis" unicode="&#x426;" horiz-adv-x="768" 
d="M435 733l-12 -4l134 -19l133 17l42 -32l-42 -71l-26 -154l-3 -122l25 -107l-21 -139l64 -36l41 9l4 -190l-45 -35l-54 72l-114 83l-131 -13l-1 126l18 139l-10 122l8 123l-9 122l-39 72zM311 633l20 -21l-16 -106l20 -119l-3 -94l-20 -125l-1 -96l88 -21l3 -40l-97 -20
l-117 2l-128 6l-30 41l59 61l-17 126l11 143l-10 133l-2 122l-52 60l64 42l113 -1l132 -17l23 -8z" />
    <glyph glyph-name="multiply" unicode="&#xd7;" horiz-adv-x="714" 
d="M645 13l1 -6l-133 -2l-121 10h-77l62 84l25 144l-21 114l14 139l7 136l-33 83l25 15l125 -10l134 5l27 -42l-55 -79l18 -110l-10 -125l8 -125l-9 -126l53 -86zM358 327l-10 -1l11 -44l-31 7l-209 41l-67 126l21 160l-68 81l48 12l180 18l50 -76l4 -215z" />
    <glyph glyph-name="multiply" unicode="&#x427;" horiz-adv-x="714" 
d="M645 13l1 -6l-133 -2l-121 10h-77l62 84l25 144l-21 114l14 139l7 136l-33 83l25 15l125 -10l134 5l27 -42l-55 -79l18 -110l-10 -125l8 -125l-9 -126l53 -86zM358 327l-10 -1l11 -44l-31 7l-209 41l-67 126l21 160l-68 81l48 12l180 18l50 -76l4 -215z" />
    <glyph glyph-name="Oslash" unicode="&#xd8;" horiz-adv-x="1106" 
d="M787 733v-8l138 10l99 -29l40 -28l-29 -64l-21 -139l14 -112l7 -115l4 -124l42 -85l-43 -39l-117 5l-142 -13l-1 125l18 137l-10 120l8 121l-9 121l-39 80zM677 616l-16 -13l-1 -94l7 -130l3 -87l14 -129l-7 -107l64 6l13 -51l-102 -21l-124 -1l-96 17l-10 129l-2 117
l2 108l21 134l-14 121l-33 68l27 44l117 6l124 -4l44 -45zM330 616v-12l-7 -97l-6 -120l2 -113l-9 -105l19 -118l89 1l-10 -47l-126 -6l-93 15l-109 -17l-62 41l79 82l-28 114l22 129l1 131l-19 138l-45 63l57 38l118 -21l110 5l57 -33z" />
    <glyph glyph-name="Oslash" unicode="&#x428;" horiz-adv-x="1106" 
d="M787 733v-8l138 10l99 -29l40 -28l-29 -64l-21 -139l14 -112l7 -115l4 -124l42 -85l-43 -39l-117 5l-142 -13l-1 125l18 137l-10 120l8 121l-9 121l-39 80zM677 616l-16 -13l-1 -94l7 -130l3 -87l14 -129l-7 -107l64 6l13 -51l-102 -21l-124 -1l-96 17l-10 129l-2 117
l2 108l21 134l-14 121l-33 68l27 44l117 6l124 -4l44 -45zM330 616v-12l-7 -97l-6 -120l2 -113l-9 -105l19 -118l89 1l-10 -47l-126 -6l-93 15l-109 -17l-62 41l79 82l-28 114l22 129l1 131l-19 138l-45 63l57 38l118 -21l110 5l57 -33z" />
    <glyph glyph-name="Ugrave" unicode="&#xd9;" horiz-adv-x="1116" 
d="M789 733l-12 -4l133 -19l131 17l42 -32l-42 -71l-26 -154l-3 -122l25 -107l-21 -139l64 -36l41 9l4 -190l-45 -35l-54 72l-114 83l-131 -13l-1 125l18 137l-10 120l8 121l-9 121l-39 80zM662 622l4 -16l20 -116l-3 -92l-20 -123l-1 -94l7 -130l84 23l14 -83l-114 2
l-124 6l-94 12l5 101l-17 121l11 138l-10 129l-2 117l-36 72l59 38l106 -1l125 -17l26 -8zM331 601l-10 5l-10 -104l-1 -106l22 -120l-7 -97l-6 -120l83 -3l-9 -59l-92 -9l-102 1l-121 16l-58 23l71 97l2 110l-19 138l25 126l-28 114l-32 76l44 35l106 11l135 -10l51 -18z
" />
    <glyph glyph-name="Ugrave" unicode="&#x429;" horiz-adv-x="1116" 
d="M789 733l-12 -4l133 -19l131 17l42 -32l-42 -71l-26 -154l-3 -122l25 -107l-21 -139l64 -36l41 9l4 -190l-45 -35l-54 72l-114 83l-131 -13l-1 125l18 137l-10 120l8 121l-9 121l-39 80zM662 622l4 -16l20 -116l-3 -92l-20 -123l-1 -94l7 -130l84 23l14 -83l-114 2
l-124 6l-94 12l5 101l-17 121l11 138l-10 129l-2 117l-36 72l59 38l106 -1l125 -17l26 -8zM331 601l-10 5l-10 -104l-1 -106l22 -120l-7 -97l-6 -120l83 -3l-9 -59l-92 -9l-102 1l-121 16l-58 23l71 97l2 110l-19 138l25 126l-28 114l-32 76l44 35l106 11l135 -10l51 -18z
" />
    <glyph glyph-name="Uacute" unicode="&#xda;" horiz-adv-x="810" 
d="M450 622l12 2l-26 -151l-3 -120l25 -104l-21 -136l14 -110l-118 9l-122 1l-55 26l54 72l8 127l-16 109l-1 124l18 137l-10 121l135 -1l118 -1l50 -34zM481 386l-15 -16l11 78l11 7l151 -29l94 -87l52 -110l-45 -124l-88 -91l-163 -7l-24 6l4 57l71 72l6 158zM38 529
l-11 -2l3 204l158 -20l-7 -66l-83 -90l-30 -59z" />
    <glyph glyph-name="Uacute" unicode="&#x42a;" horiz-adv-x="810" 
d="M450 622l12 2l-26 -151l-3 -120l25 -104l-21 -136l14 -110l-118 9l-122 1l-55 26l54 72l8 127l-16 109l-1 124l18 137l-10 121l135 -1l118 -1l50 -34zM481 386l-15 -16l11 78l11 7l151 -29l94 -87l52 -110l-45 -124l-88 -91l-163 -7l-24 6l4 57l71 72l6 158zM38 529
l-11 -2l3 204l158 -20l-7 -66l-83 -90l-30 -59z" />
    <glyph glyph-name="Ucircumflex" unicode="&#xdb;" horiz-adv-x="1023" 
d="M325 622v-8l12 -112l-26 -151l-3 -119l25 -105l-21 -136l-112 12l-118 9l-39 30l42 79v115l8 129l-16 111l-1 128l-36 96l33 29l141 -1l123 -1l50 -34zM357 388l1 -17l-17 60l32 17l143 -17l90 -79l33 -135l-10 -111l-107 -75l-147 -42l-32 18l-3 67l68 87l7 122z
M689 731l9 -14l112 12h157l15 -42l-33 -79l1 -120l-19 -114l9 -135l14 -117l48 -100l-59 -25l-112 -7l-134 17l-63 17l53 96l7 104l3 147l14 104l-7 127l-71 88z" />
    <glyph glyph-name="Ucircumflex" unicode="&#x42b;" horiz-adv-x="1023" 
d="M325 622v-8l12 -112l-26 -151l-3 -119l25 -105l-21 -136l-112 12l-118 9l-39 30l42 79v115l8 129l-16 111l-1 128l-36 96l33 29l141 -1l123 -1l50 -34zM357 388l1 -17l-17 60l32 17l143 -17l90 -79l33 -135l-10 -111l-107 -75l-147 -42l-32 18l-3 67l68 87l7 122z
M689 731l9 -14l112 12h157l15 -42l-33 -79l1 -120l-19 -114l9 -135l14 -117l48 -100l-59 -25l-112 -7l-134 17l-63 17l53 96l7 104l3 147l14 104l-7 127l-71 88z" />
    <glyph glyph-name="Udieresis" unicode="&#xdc;" horiz-adv-x="685" 
d="M322 624l13 -25l-21 -120l6 -105l13 -120l-20 -145l8 -99l-134 -7l-111 -3l-60 17l52 80l19 127l-15 144l24 105l-3 127l-57 89l47 17l129 7l117 7l56 -25zM339 374l24 -4l-13 58l26 29l145 -26l93 -93l28 -118l-22 -131l-93 -61l-163 -22l-6 1l-14 52l70 101l11 122z
" />
    <glyph glyph-name="Udieresis" unicode="&#x42c;" horiz-adv-x="685" 
d="M322 624l13 -25l-21 -120l6 -105l13 -120l-20 -145l8 -99l-134 -7l-111 -3l-60 17l52 80l19 127l-15 144l24 105l-3 127l-57 89l47 17l129 7l117 7l56 -25zM339 374l24 -4l-13 58l26 29l145 -26l93 -93l28 -118l-22 -131l-93 -61l-163 -22l-6 1l-14 52l70 101l11 122z
" />
    <glyph glyph-name="Yacute" unicode="&#xdd;" horiz-adv-x="658" 
d="M279 748l-10 -7l24 -90l-124 -109l-66 -103l-28 44l-4 202l14 43l59 -29zM284 46l-14 -1l8 -48l-174 70l-36 108l16 26l62 -98zM320 -3l-14 -24l5 100l54 88l1 87l-3 110l9 98v119l-73 93l15 72l118 -41l104 -65l73 -133l-1 -148l5 -155l-83 -113l-93 -58zM351 394v5
l-18 -68l-45 -29l-40 -74l-44 66l13 168l19 53l59 -79z" />
    <glyph glyph-name="Yacute" unicode="&#x42d;" horiz-adv-x="658" 
d="M279 748l-10 -7l24 -90l-124 -109l-66 -103l-28 44l-4 202l14 43l59 -29zM284 46l-14 -1l8 -48l-174 70l-36 108l16 26l62 -98zM320 -3l-14 -24l5 100l54 88l1 87l-3 110l9 98v119l-73 93l15 72l118 -41l104 -65l73 -133l-1 -148l5 -155l-83 -113l-93 -58zM351 394v5
l-18 -68l-45 -29l-40 -74l-44 66l13 168l19 53l59 -79z" />
    <glyph glyph-name="Thorn" unicode="&#xde;" horiz-adv-x="1070" 
d="M71 735l-3 -7l137 -19l104 4l70 -32l-76 -80l6 -186l68 1l-20 -86l-47 23l-8 -124l14 -120l38 -91l-45 -32l-107 2l-141 20l-19 11l51 83l-3 133l4 111l-4 131l-15 132l-49 86zM691 46l9 9l6 -68l-144 48l-83 63l-69 112l-8 138l24 150l47 112l101 104l120 32l1 -80
l-53 -91l9 -117v-95l-11 -105l15 -108zM722 -21l9 17l-3 45l58 91l6 132l-27 94l21 106l-6 103l-55 99l2 69l143 -41l85 -61l50 -113l17 -158v-155l-77 -100l-76 -92z" />
    <glyph glyph-name="Thorn" unicode="&#x42e;" horiz-adv-x="1070" 
d="M71 735l-3 -7l137 -19l104 4l70 -32l-76 -80l6 -186l68 1l-20 -86l-47 23l-8 -124l14 -120l38 -91l-45 -32l-107 2l-141 20l-19 11l51 83l-3 133l4 111l-4 131l-15 132l-49 86zM691 46l9 9l6 -68l-144 48l-83 63l-69 112l-8 138l24 150l47 112l101 104l120 32l1 -80
l-53 -91l9 -117v-95l-11 -105l15 -108zM722 -21l9 17l-3 45l58 91l6 132l-27 94l21 106l-6 103l-55 99l2 69l143 -41l85 -61l50 -113l17 -158v-155l-77 -100l-76 -92z" />
    <glyph glyph-name="germandbls" unicode="&#xdf;" horiz-adv-x="737" 
d="M382 400l8 -26l-22 -58l-38 -94l-21 -61l-34 -115l-106 -43l-178 91l40 56l33 -36l24 17l-17 79l167 136l19 4l-142 80l-18 96l63 141l192 52l42 -13l-4 -54l-80 -84l5 -89zM410 111l13 -14l-18 121l8 139l6 116l-16 139l13 110l116 -2l139 -12l46 -28l-67 -85l5 -96
l-8 -126l1 -143l-3 -121l63 -89l-43 -17l-143 3l-116 1l-56 21z" />
    <glyph glyph-name="germandbls" unicode="&#x42f;" horiz-adv-x="737" 
d="M382 400l8 -26l-22 -58l-38 -94l-21 -61l-34 -115l-106 -43l-178 91l40 56l33 -36l24 17l-17 79l167 136l19 4l-142 80l-18 96l63 141l192 52l42 -13l-4 -54l-80 -84l5 -89zM410 111l13 -14l-18 121l8 139l6 116l-16 139l13 110l116 -2l139 -12l46 -28l-67 -85l5 -96
l-8 -126l1 -143l-3 -121l63 -89l-43 -17l-143 3l-116 1l-56 21z" />
    <glyph glyph-name="agrave" unicode="&#xe0;" horiz-adv-x="732" 
d="M130 183l-9 -28l37 132l21 101l43 106l12 97l28 -125l-11 -109l-44 -90l-6 -130l-8 -29l65 -77l-46 -45l-129 7l-63 38l54 43zM407 120l-5 -10l-34 85l-136 -13l10 71l126 -12l-30 137l-47 132l-28 165l10 58l108 -19l104 4l39 -130l30 -108l19 -119l45 -120l16 -131
l28 -32l49 -57l-80 -28l-89 -3l-137 2l-51 51z" />
    <glyph glyph-name="agrave" unicode="&#x430;" horiz-adv-x="732" 
d="M130 183l-9 -28l37 132l21 101l43 106l12 97l28 -125l-11 -109l-44 -90l-6 -130l-8 -29l65 -77l-46 -45l-129 7l-63 38l54 43zM407 120l-5 -10l-34 85l-136 -13l10 71l126 -12l-30 137l-47 132l-28 165l10 58l108 -19l104 4l39 -130l30 -108l19 -119l45 -120l16 -131
l28 -32l49 -57l-80 -28l-89 -3l-137 2l-51 51z" />
    <glyph glyph-name="aacute" unicode="&#xe1;" horiz-adv-x="685" 
d="M71 735l-8 -23l131 17l139 1l-20 -143l8 -97l-8 -127l14 -123l-17 -132l-2 -122l-107 2l-140 20l-19 11l51 83l-3 133l4 111l-4 131l-15 132l-49 86zM387 -10l-16 -4l-16 29l-8 60l65 70l-3 145l-55 83v74l10 3l167 -24l79 -83l37 -113l-20 -142l-115 -70zM363 648l-18 3
l8 76l129 -7l107 15l13 -163l-44 -74l-40 75z" />
    <glyph glyph-name="aacute" unicode="&#x431;" horiz-adv-x="685" 
d="M71 735l-8 -23l131 17l139 1l-20 -143l8 -97l-8 -127l14 -123l-17 -132l-2 -122l-107 2l-140 20l-19 11l51 83l-3 133l4 111l-4 131l-15 132l-49 86zM387 -10l-16 -4l-16 29l-8 60l65 70l-3 145l-55 83v74l10 3l167 -24l79 -83l37 -113l-20 -142l-115 -70zM363 648l-18 3
l8 76l129 -7l107 15l13 -163l-44 -74l-40 75z" />
    <glyph glyph-name="acircumflex" unicode="&#xe2;" horiz-adv-x="713" 
d="M322 15l-8 -23l-120 17l-112 1l-63 7l62 104l-8 118l14 121l-17 112l-2 123l-35 84l28 49l149 -19l123 2l-3 -112l4 -133l-4 -113l-15 -113l5 -116zM404 -10l-21 2l-30 15l6 54l59 106l13 92l-84 88l13 49l78 92l-13 66l-70 120l-8 59l44 -19l197 -37l74 -146l-46 -100
l-142 -48l15 -2l125 -65l54 -115l-20 -129l-114 -59z" />
    <glyph glyph-name="acircumflex" unicode="&#x432;" horiz-adv-x="713" 
d="M322 15l-8 -23l-120 17l-112 1l-63 7l62 104l-8 118l14 121l-17 112l-2 123l-35 84l28 49l149 -19l123 2l-3 -112l4 -133l-4 -113l-15 -113l5 -116zM404 -10l-21 2l-30 15l6 54l59 106l13 92l-84 88l13 49l78 92l-13 66l-70 120l-8 59l44 -19l197 -37l74 -146l-46 -100
l-142 -48l15 -2l125 -65l54 -115l-20 -129l-114 -59z" />
    <glyph glyph-name="atilde" unicode="&#xe3;" horiz-adv-x="631" 
d="M369 649l1 14l-3 71l114 -5l85 -22l6 -183l-29 -28l-68 84zM69 710l-3 -4l121 5l132 8l16 -134l-8 -118l-8 -109l10 -137l4 -124l41 -61l-25 -48l-135 15h-146l-41 39l62 55l-13 136l7 121l-1 118l-8 132l-54 90z" />
    <glyph glyph-name="atilde" unicode="&#x433;" horiz-adv-x="631" 
d="M369 649l1 14l-3 71l114 -5l85 -22l6 -183l-29 -28l-68 84zM69 710l-3 -4l121 5l132 8l16 -134l-8 -118l-8 -109l10 -137l4 -124l41 -61l-25 -48l-135 15h-146l-41 39l62 55l-13 136l7 121l-1 118l-8 132l-54 90z" />
    <glyph glyph-name="adieresis" unicode="&#xe4;" horiz-adv-x="719" 
d="M511 -8l-6 -4l-111 -2l-24 141l26 101l-3 135l-13 120l2 129l8 94l112 11l133 -3l42 -36l-62 -74v-117l6 -137l16 -108l-3 -117l54 -53l10 -85l6 -120l-33 -28l-64 84zM350 66l-5 -6l10 -64l-153 15l-129 -89l-41 -93l-40 35l-3 133l61 56l91 157l4 174l-2 141l-51 135
l-36 30l37 18l116 8l143 7l-13 -78l-73 8l-76 -111l-4 -112l6 -109l16 -129l-38 -138z" />
    <glyph glyph-name="adieresis" unicode="&#x434;" horiz-adv-x="719" 
d="M511 -8l-6 -4l-111 -2l-24 141l26 101l-3 135l-13 120l2 129l8 94l112 11l133 -3l42 -36l-62 -74v-117l6 -137l16 -108l-3 -117l54 -53l10 -85l6 -120l-33 -28l-64 84zM350 66l-5 -6l10 -64l-153 15l-129 -89l-41 -93l-40 35l-3 133l61 56l91 157l4 174l-2 141l-51 135
l-36 30l37 18l116 8l143 7l-13 -78l-73 8l-76 -111l-4 -112l6 -109l16 -129l-38 -138z" />
    <glyph glyph-name="aring" unicode="&#xe5;" horiz-adv-x="636" 
d="M369 646l1 14l-3 74l114 -5l85 -22l6 -184l-29 -26l-68 83zM320 -10l-7 1l-120 8l-109 -12l-51 34l46 93l10 110l4 122l-24 145l26 106l-57 97l30 29l127 9l134 -26l-13 -109l7 -123l-1 -126l-8 -113v-112zM577 -14l13 17h-113l-113 -15l-18 74l147 85l40 71l49 -67z
M361 333l-19 5l13 55l46 46l43 74l38 -64l4 -177l-24 -34z" />
    <glyph glyph-name="aring" unicode="&#x435;" horiz-adv-x="636" 
d="M369 646l1 14l-3 74l114 -5l85 -22l6 -184l-29 -26l-68 83zM320 -10l-7 1l-120 8l-109 -12l-51 34l46 93l10 110l4 122l-24 145l26 106l-57 97l30 29l127 9l134 -26l-13 -109l7 -123l-1 -126l-8 -113v-112zM577 -14l13 17h-113l-113 -15l-18 74l147 85l40 71l49 -67z
M361 333l-19 5l13 55l46 46l43 74l38 -64l4 -177l-24 -34z" />
    <glyph glyph-name="ae" unicode="&#xe6;" horiz-adv-x="1099" 
d="M678 -8l-2 -6l-139 21l-90 -19l-38 41l25 77l2 136l8 100l-13 137l7 124l-55 76l34 36l125 8l130 -13l58 -13l-57 -74l4 -132l-24 -148l6 -118v-123l28 -75zM1053 -12l-2 23l-149 -11l-116 -11l-54 38l35 54l4 19l-56 174l-12 86l26 43l99 142l34 73l-69 58l31 40l183 7
l30 -48l-42 -39l-135 -146l38 -95l49 -93l58 -112l34 -97l48 -58zM314 -4l5 -2l-133 8l-125 13l-63 4l80 80l36 102l42 103l23 98l69 100l-136 131l-49 47l43 45l174 -9l36 -34l-80 -53l31 -95l112 -139l25 -56l-20 -53l-57 -190l-11 -9l35 -55z" />
    <glyph glyph-name="ae" unicode="&#x436;" horiz-adv-x="1099" 
d="M678 -8l-2 -6l-139 21l-90 -19l-38 41l25 77l2 136l8 100l-13 137l7 124l-55 76l34 36l125 8l130 -13l58 -13l-57 -74l4 -132l-24 -148l6 -118v-123l28 -75zM1053 -12l-2 23l-149 -11l-116 -11l-54 38l35 54l4 19l-56 174l-12 86l26 43l99 142l34 73l-69 58l31 40l183 7
l30 -48l-42 -39l-135 -146l38 -95l49 -93l58 -112l34 -97l48 -58zM314 -4l5 -2l-133 8l-125 13l-63 4l80 80l36 102l42 103l23 98l69 100l-136 131l-49 47l43 45l174 -9l36 -34l-80 -53l31 -95l112 -139l25 -56l-20 -53l-57 -190l-11 -9l35 -55z" />
    <glyph glyph-name="ccedilla" unicode="&#xe7;" horiz-adv-x="646" 
d="M316 -21l-2 -6l-24 84l84 74l-3 149l-89 68l-81 40l91 7l63 83l7 97l-59 83l-8 70l167 -16l95 -80l43 -89l-167 -151l4 -9l106 -79l58 -117l-37 -107l-114 -68zM280 721l-7 8l-5 -73l-71 -26l36 -64l-68 -92l-102 101l61 124zM259 38l21 23l-2 -79l-172 58l-61 116
l101 85l74 -77l-33 -75z" />
    <glyph glyph-name="ccedilla" unicode="&#x437;" horiz-adv-x="646" 
d="M316 -21l-2 -6l-24 84l84 74l-3 149l-89 68l-81 40l91 7l63 83l7 97l-59 83l-8 70l167 -16l95 -80l43 -89l-167 -151l4 -9l106 -79l58 -117l-37 -107l-114 -68zM280 721l-7 8l-5 -73l-71 -26l36 -64l-68 -92l-102 101l61 124zM259 38l21 23l-2 -79l-172 58l-61 116
l101 85l74 -77l-33 -75z" />
    <glyph glyph-name="egrave" unicode="&#xe8;" horiz-adv-x="756" 
d="M470 712l-2 -6l103 21l153 -19l40 -15l-67 -81l2 -116l8 -150l-13 -113l7 -128l53 -88l-51 -22l-127 8l-121 -13l-19 41l35 83l4 124l-24 107l6 138v133l-48 79zM436 490l-12 17l-3 -152l-43 -99l-51 -83l-19 -73l51 -94l-42 -14l-130 7l-117 -9l-39 33l58 99l-2 111
l3 134v126v112l-72 81l52 37l114 -15l141 8l29 -36l-41 -69l6 -147l16 -167l-6 4l44 108z" />
    <glyph glyph-name="egrave" unicode="&#x438;" horiz-adv-x="756" 
d="M470 712l-2 -6l103 21l153 -19l40 -15l-67 -81l2 -116l8 -150l-13 -113l7 -128l53 -88l-51 -22l-127 8l-121 -13l-19 41l35 83l4 124l-24 107l6 138v133l-48 79zM436 490l-12 17l-3 -152l-43 -99l-51 -83l-19 -73l51 -94l-42 -14l-130 7l-117 -9l-39 33l58 99l-2 111
l3 134v126v112l-72 81l52 37l114 -15l141 8l29 -36l-41 -69l6 -147l16 -167l-6 4l44 108z" />
    <glyph glyph-name="eacute" unicode="&#xe9;" horiz-adv-x="756" 
d="M470 712l-2 -6l103 21l153 -19l40 -15l-67 -81l2 -116l8 -150l-13 -113l7 -128l53 -88l-51 -22l-127 8l-121 -13l-19 41l35 83l4 124l-24 107l6 138v133l-48 79zM436 490l-12 17l-3 -152l-43 -99l-51 -83l-19 -73l51 -94l-42 -14l-130 7l-117 -9l-39 33l58 99l-2 111
l3 134v126v112l-72 81l52 37l114 -15l141 8l29 -36l-41 -69l6 -147l16 -167l-6 4l44 108zM414 736l-13 13l-19 -1l-133 81l90 105l11 -5l-31 -58l51 -43l35 20l61 19l-15 44l8 20l79 -89z" />
    <glyph glyph-name="eacute" unicode="&#x439;" horiz-adv-x="756" 
d="M470 712l-2 -6l103 21l153 -19l40 -15l-67 -81l2 -116l8 -150l-13 -113l7 -128l53 -88l-51 -22l-127 8l-121 -13l-19 41l35 83l4 124l-24 107l6 138v133l-48 79zM436 490l-12 17l-3 -152l-43 -99l-51 -83l-19 -73l51 -94l-42 -14l-130 7l-117 -9l-39 33l58 99l-2 111
l3 134v126v112l-72 81l52 37l114 -15l141 8l29 -36l-41 -69l6 -147l16 -167l-6 4l44 108zM414 736l-13 13l-19 -1l-133 81l90 105l11 -5l-31 -58l51 -43l35 20l61 19l-15 44l8 20l79 -89z" />
    <glyph glyph-name="ecircumflex" unicode="&#xea;" horiz-adv-x="761" 
d="M335 -6l-17 9l-123 -11l-134 3l-44 31l58 80l15 123l-21 136l23 116l-15 139l-47 64l46 37l120 -9h145l38 -19l-59 -73l13 -140l-10 -130l-6 -111l-6 -144l35 -66zM504 479l15 1l41 -81l37 -113l50 -81l41 -115l71 -50l-41 -52l-136 3l-122 4l-45 50l35 39l-31 47
l-54 154l-6 66l18 63l107 128l17 73l-60 61l39 30l185 1l55 -13l-62 -51z" />
    <glyph glyph-name="ecircumflex" unicode="&#x43a;" horiz-adv-x="761" 
d="M335 -6l-17 9l-123 -11l-134 3l-44 31l58 80l15 123l-21 136l23 116l-15 139l-47 64l46 37l120 -9h145l38 -19l-59 -73l13 -140l-10 -130l-6 -111l-6 -144l35 -66zM504 479l15 1l41 -81l37 -113l50 -81l41 -115l71 -50l-41 -52l-136 3l-122 4l-45 50l35 39l-31 47
l-54 154l-6 66l18 63l107 128l17 73l-60 61l39 30l185 1l55 -13l-62 -51z" />
    <glyph glyph-name="edieresis" unicode="&#xeb;" horiz-adv-x="749" 
d="M402 714l-17 9l4 -74l-66 3l-89 -100l4 -135l15 -137l-21 -122l-107 -168l-146 125l91 75l82 -60l-13 -82l56 109l-4 132l-5 130l13 109l-70 123l-48 45l37 16l128 11zM409 97l10 19l-3 105l15 142l3 101l-6 125l7 126l128 15l122 -8l18 -16l-48 -86l12 -131l-11 -125
l10 -133l-17 -128l67 -85l-57 -32l-120 1l-119 20l-50 26z" />
    <glyph glyph-name="edieresis" unicode="&#x43b;" horiz-adv-x="749" 
d="M402 714l-17 9l4 -74l-66 3l-89 -100l4 -135l15 -137l-21 -122l-107 -168l-146 125l91 75l82 -60l-13 -82l56 109l-4 132l-5 130l13 109l-70 123l-48 45l37 16l128 11zM409 97l10 19l-3 105l15 142l3 101l-6 125l7 126l128 15l122 -8l18 -16l-48 -86l12 -131l-11 -125
l10 -133l-17 -128l67 -85l-57 -32l-120 1l-119 20l-50 26z" />
    <glyph glyph-name="igrave" unicode="&#xec;" horiz-adv-x="807" 
d="M106 506v3l-13 14l62 -186l3 -169l14 -88l72 -55l-47 -23l-144 9l-30 20l40 42l28 126l-6 90l-3 119zM439 421l28 5l-34 -112l-55 -91l-25 -114l-19 -107l-42 3l-30 114l-57 119l-30 108l-50 117l-29 120l-41 88l-40 26l23 9l132 17l130 -11l41 -139l47 -141l55 176
l17 -2zM497 106v-7l-18 132l-3 126l15 111l-11 138l-10 124l143 -17l134 13l43 -35l-59 -90l-8 -113l3 -142l-3 -111l-8 -143l60 -57l-46 -47l-116 20l-128 -20l-50 33z" />
    <glyph glyph-name="igrave" unicode="&#x43c;" horiz-adv-x="807" 
d="M106 506v3l-13 14l62 -186l3 -169l14 -88l72 -55l-47 -23l-144 9l-30 20l40 42l28 126l-6 90l-3 119zM439 421l28 5l-34 -112l-55 -91l-25 -114l-19 -107l-42 3l-30 114l-57 119l-30 108l-50 117l-29 120l-41 88l-40 26l23 9l132 17l130 -11l41 -139l47 -141l55 176
l17 -2zM497 106v-7l-18 132l-3 126l15 111l-11 138l-10 124l143 -17l134 13l43 -35l-59 -90l-8 -113l3 -142l-3 -111l-8 -143l60 -57l-46 -47l-116 20l-128 -20l-50 33z" />
    <glyph glyph-name="iacute" unicode="&#xed;" horiz-adv-x="756" 
d="M335 -6l-17 9l-123 -11l-134 3l-44 31l58 80l15 123l-21 136l23 116l-15 139l-47 64l46 37l116 -9h140l31 -15l-43 -66l13 -142l-10 -133l-6 -115l-6 -146l35 -66zM340 328l12 15l3 49l77 17l-8 92l6 124l-41 66l50 37l130 -20l121 3l50 -25l-52 -67l-3 -135l-25 -113
l6 -136l12 -130l43 -70l-33 -35h-144l-118 -12l-44 24l48 75l12 141l-6 117z" />
    <glyph glyph-name="iacute" unicode="&#x43d;" horiz-adv-x="756" 
d="M335 -6l-17 9l-123 -11l-134 3l-44 31l58 80l15 123l-21 136l23 116l-15 139l-47 64l46 37l116 -9h140l31 -15l-43 -66l13 -142l-10 -133l-6 -115l-6 -146l35 -66zM340 328l12 15l3 49l77 17l-8 92l6 124l-41 66l50 37l130 -20l121 3l50 -25l-52 -67l-3 -135l-25 -113
l6 -136l12 -130l43 -70l-33 -35h-144l-118 -12l-44 24l48 75l12 141l-6 117z" />
    <glyph glyph-name="icircumflex" unicode="&#xee;" horiz-adv-x="714" 
d="M352 42l-17 1l15 -63l-149 45l-73 68l-76 128l-14 132l24 157l49 106l110 75l124 44l-5 -52l-37 -108l-10 -113l-6 -93l-6 -125l-3 -98zM361 -17l23 6l-25 74l55 85l12 106l-11 111l10 103l-17 109l-40 83l-10 59l140 -33l108 -55l54 -119l5 -166l-15 -132l-56 -126
l-103 -72z" />
    <glyph glyph-name="icircumflex" unicode="&#x43e;" horiz-adv-x="714" 
d="M352 42l-17 1l15 -63l-149 45l-73 68l-76 128l-14 132l24 157l49 106l110 75l124 44l-5 -52l-37 -108l-10 -113l-6 -93l-6 -125l-3 -98zM361 -17l23 6l-25 74l55 85l12 106l-11 111l10 103l-17 109l-40 83l-10 59l140 -33l108 -55l54 -119l5 -166l-15 -132l-56 -126
l-103 -72z" />
    <glyph glyph-name="idieresis" unicode="&#xef;" horiz-adv-x="756" 
d="M335 -6l-13 -2l-134 3l-128 1l-39 29l69 79l-21 137l23 116l-15 138l7 107l-51 90l32 20h138l122 10l-5 -114l13 -137l-10 -127l-6 -109l-6 -140l35 -66zM426 103l6 1l-8 96l6 128l-3 94l15 132l3 91l-89 3l7 67l113 15l109 -8l86 13l49 -39l-42 -85l-11 -124l10 -131
l-17 -126l9 -139l44 -75l-32 -29l-115 20l-133 -4l-50 9z" />
    <glyph glyph-name="idieresis" unicode="&#x43f;" horiz-adv-x="756" 
d="M335 -6l-13 -2l-134 3l-128 1l-39 29l69 79l-21 137l23 116l-15 138l7 107l-51 90l32 20h138l122 10l-5 -114l13 -137l-10 -127l-6 -109l-6 -140l35 -66zM426 103l6 1l-8 96l6 128l-3 94l15 132l3 91l-89 3l7 67l113 15l109 -8l86 13l49 -39l-42 -85l-11 -124l10 -131
l-17 -126l9 -139l44 -75l-32 -29l-115 20l-133 -4l-50 9z" />
    <glyph glyph-name="eth" unicode="&#xf0;" horiz-adv-x="685" 
d="M81 714l-13 -2l118 3l125 1l4 -123l15 -124l-21 -109l23 -130l-15 -108l72 -100l-48 -21l-143 -9h-120l-47 40l49 90l13 112l-10 120l-6 139l-6 108l-57 93zM367 279l19 -1l-46 13l6 52l76 86l-11 144l-54 86l-17 61l30 -12l142 -27l104 -73l43 -103l-37 -127l-109 -91z
" />
    <glyph glyph-name="eth" unicode="&#x440;" horiz-adv-x="685" 
d="M81 714l-13 -2l118 3l125 1l4 -123l15 -124l-21 -109l23 -130l-15 -108l72 -100l-48 -21l-143 -9h-120l-47 40l49 90l13 112l-10 120l-6 139l-6 108l-57 93zM367 279l19 -1l-46 13l6 52l76 86l-11 144l-54 86l-17 61l30 -12l142 -27l104 -73l43 -103l-37 -127l-109 -91z
" />
    <glyph glyph-name="ntilde" unicode="&#xf1;" horiz-adv-x="658" 
d="M372 662l22 4l-11 56l126 -24l45 39l51 -50l4 -178l-53 -78l-51 119zM389 -6l-24 -19l9 94l138 39l40 111l57 -51l-54 -93zM358 46l-11 -1l12 -72l-130 37l-93 82l-66 114l-24 150l26 162l40 118l110 62l120 35l10 -73l-50 -73l-27 -125l12 -92l11 -125l-9 -107z" />
    <glyph glyph-name="ntilde" unicode="&#x441;" horiz-adv-x="658" 
d="M372 662l22 4l-11 56l126 -24l45 39l51 -50l4 -178l-53 -78l-51 119zM389 -6l-24 -19l9 94l138 39l40 111l57 -51l-54 -93zM358 46l-11 -1l12 -72l-130 37l-93 82l-66 114l-24 150l26 162l40 118l110 62l120 35l10 -73l-50 -73l-27 -125l12 -92l11 -125l-9 -107z" />
    <glyph glyph-name="ograve" unicode="&#xf2;" horiz-adv-x="672" 
d="M29 521l4 3l-9 205l166 -14l4 -51l-87 -135l-31 -63zM495 709l-9 22l164 -20l-24 -93l24 -120l-40 -20l-43 67l-61 111zM206 708l25 -1h107l133 -1v-118l5 -117l-3 -126l-2 -126l5 -114l42 -66l-39 -42l-146 3l-124 -2l-38 46l37 58l12 137l11 104l-9 121l7 121z" />
    <glyph glyph-name="ograve" unicode="&#x442;" horiz-adv-x="672" 
d="M29 521l4 3l-9 205l166 -14l4 -51l-87 -135l-31 -63zM495 709l-9 22l164 -20l-24 -93l24 -120l-40 -20l-43 67l-61 111zM206 708l25 -1h107l133 -1v-118l5 -117l-3 -126l-2 -126l5 -114l42 -66l-39 -42l-146 3l-124 -2l-38 46l37 58l12 137l11 104l-9 121l7 121z" />
    <glyph glyph-name="oacute" unicode="&#xf3;" horiz-adv-x="699" 
d="M584 572l17 7l-75 -172l-45 44l40 121l1 45l-43 66l54 49l111 -21l51 -22zM96 731l5 -5l99 4l133 -13l48 -32l-24 -52l21 -12l39 -137l78 -103l-49 -147l-70 -129l-51 102l-81 104l-49 127l-39 84l-82 119l-35 40zM301 87l-16 1l49 54l18 -68l-13 -4l-114 -96l-139 118
l102 83l72 -60l-7 -41l12 -17z" />
    <glyph glyph-name="oacute" unicode="&#x443;" horiz-adv-x="699" 
d="M584 572l17 7l-75 -172l-45 44l40 121l1 45l-43 66l54 49l111 -21l51 -22zM96 731l5 -5l99 4l133 -13l48 -32l-24 -52l21 -12l39 -137l78 -103l-49 -147l-70 -129l-51 102l-81 104l-49 127l-39 84l-82 119l-35 40zM301 87l-16 1l49 54l18 -68l-13 -4l-114 -96l-139 118
l102 83l72 -60l-7 -41l12 -17z" />
    <glyph glyph-name="ocircumflex" unicode="&#xf4;" horiz-adv-x="962" 
d="M354 111l-5 -4l12 139l11 105l-9 123l7 123l-77 82l52 52l151 -20l107 15l67 -42l-59 -64v-129l5 -127l-11 -139l-7 -111l46 -75l-21 -44l-127 17l-153 -21l-31 38zM647 544l-29 -20l25 53h8l165 -27l92 -69l36 -115l-34 -123l-95 -77l-147 -15l-43 4l12 48l52 94l10 139
zM303 580l9 7l19 1l5 -63l-62 -85l4 -148l51 -83l-5 -71l-5 21l-166 16l-75 80l-44 110l24 121l108 77z" />
    <glyph glyph-name="ocircumflex" unicode="&#x444;" horiz-adv-x="962" 
d="M354 111l-5 -4l12 139l11 105l-9 123l7 123l-77 82l52 52l151 -20l107 15l67 -42l-59 -64v-129l5 -127l-11 -139l-7 -111l46 -75l-21 -44l-127 17l-153 -21l-31 38zM647 544l-29 -20l25 53h8l165 -27l92 -69l36 -115l-34 -123l-95 -77l-147 -15l-43 4l12 48l52 94l10 139
zM303 580l9 7l19 1l5 -63l-62 -85l4 -148l51 -83l-5 -71l-5 21l-166 16l-75 80l-44 110l24 121l108 77z" />
    <glyph glyph-name="otilde" unicode="&#xf5;" horiz-adv-x="693" 
d="M142 159l17 11l71 105l34 -65l-49 -74l-22 -32l49 -63l-41 -46l-105 17l-70 10l59 49zM624 -7l-20 -3l-134 5l-100 -8l-66 33l47 46l-8 33l-46 111l-54 102l-52 102l-46 113l-73 108l-40 52l32 33l135 -2l137 17l23 -46l-17 -29l22 -52l42 -104l58 -104l27 -103l60 -79
l70 -123l33 -57zM535 582l-2 3l-63 -113l-44 70l23 36l28 63l-70 57l60 32l142 -12l18 -27z" />
    <glyph glyph-name="otilde" unicode="&#x445;" horiz-adv-x="693" 
d="M142 159l17 11l71 105l34 -65l-49 -74l-22 -32l49 -63l-41 -46l-105 17l-70 10l59 49zM624 -7l-20 -3l-134 5l-100 -8l-66 33l47 46l-8 33l-46 111l-54 102l-52 102l-46 113l-73 108l-40 52l32 33l135 -2l137 17l23 -46l-17 -29l22 -52l42 -104l58 -104l27 -103l60 -79
l70 -123l33 -57zM535 582l-2 3l-63 -113l-44 70l23 36l28 63l-70 57l60 32l142 -12l18 -27z" />
    <glyph glyph-name="odieresis" unicode="&#xf6;" horiz-adv-x="768" 
d="M425 720l10 -2l139 17l100 -19l55 -16l-43 -100l-9 -126l7 -126l-23 -124l9 -102l69 -68l10 15l24 -204l-37 -14l-54 78l-117 75l-126 -15l-7 137l-9 130l22 109l4 141l-21 102l-26 85zM317 620l15 2l4 -118l-13 -104l-5 -121l16 -91l-14 -120l99 5l-13 -75l-118 -1
l-94 2l-127 -9l-51 34l79 74l-13 127l12 125v132l5 134l-57 72l41 28l132 10l105 4l46 -39z" />
    <glyph glyph-name="odieresis" unicode="&#x446;" horiz-adv-x="768" 
d="M425 720l10 -2l139 17l100 -19l55 -16l-43 -100l-9 -126l7 -126l-23 -124l9 -102l69 -68l10 15l24 -204l-37 -14l-54 78l-117 75l-126 -15l-7 137l-9 130l22 109l4 141l-21 102l-26 85zM317 620l15 2l4 -118l-13 -104l-5 -121l16 -91l-14 -120l99 5l-13 -75l-118 -1
l-94 2l-127 -9l-51 34l79 74l-13 127l12 125v132l5 134l-57 72l41 28l132 10l105 4l46 -39z" />
    <glyph glyph-name="divide" unicode="&#xf7;" horiz-adv-x="714" 
d="M635 0l-5 -4l-120 14l-122 -19l-60 28l72 80l-23 127l9 151l19 107l-24 142l-13 69l33 36l125 -4l131 -3l32 -44l-61 -68l-9 -119l22 -138l4 -107l-21 -146l66 -73zM375 352l-17 -28l12 -62l-21 6l-202 53l-72 138l-2 146l-49 92l21 33l203 -13l41 -79l10 -213z" />
    <glyph glyph-name="divide" unicode="&#x447;" horiz-adv-x="714" 
d="M635 0l-5 -4l-120 14l-122 -19l-60 28l72 80l-23 127l9 151l19 107l-24 142l-13 69l33 36l125 -4l131 -3l32 -44l-61 -68l-9 -119l22 -138l4 -107l-21 -146l66 -73zM375 352l-17 -28l12 -62l-21 6l-202 53l-72 138l-2 146l-49 92l21 33l203 -13l41 -79l10 -213z" />
    <glyph glyph-name="oslash" unicode="&#xf8;" horiz-adv-x="1106" 
d="M777 720l7 10l137 -19l116 -1l50 -32l-77 -81l9 -102l19 -144l-24 -109l24 -138l50 -64l-43 -33l-120 -3l-137 -15l-7 136l-9 128l22 107l4 139l-21 101l-26 93zM661 605l22 18l-14 -118l18 -104l-13 -122l-7 -110l16 -107l65 -9l-8 -58l-82 -8h-120l-95 -1v128l5 129
l-3 120l-2 120l5 132l-60 89l50 13l108 3l130 -2l49 -9zM316 602l14 12v-117l-6 -108l-15 -102l7 -110l2 -105l99 -3l-2 -59l-113 -24l-126 10l-114 -1l-20 44l37 60l-9 127l12 144l-7 127l10 117l-56 74l48 28l127 6l130 -7l24 -18z" />
    <glyph glyph-name="oslash" unicode="&#x448;" horiz-adv-x="1106" 
d="M777 720l7 10l137 -19l116 -1l50 -32l-77 -81l9 -102l19 -144l-24 -109l24 -138l50 -64l-43 -33l-120 -3l-137 -15l-7 136l-9 128l22 107l4 139l-21 101l-26 93zM661 605l22 18l-14 -118l18 -104l-13 -122l-7 -110l16 -107l65 -9l-8 -58l-82 -8h-120l-95 -1v128l5 129
l-3 120l-2 120l5 132l-60 89l50 13l108 3l130 -2l49 -9zM316 602l14 12v-117l-6 -108l-15 -102l7 -110l2 -105l99 -3l-2 -59l-113 -24l-126 10l-114 -1l-20 44l37 60l-9 127l12 144l-7 127l10 117l-56 74l48 28l127 6l130 -7l24 -18z" />
    <glyph glyph-name="ugrave" unicode="&#xf9;" horiz-adv-x="1116" 
d="M776 722l19 -4l112 16l130 -2l54 -47l-77 -78l23 -109l-7 -128l-8 -134l9 -125l45 -57l48 2l-27 -186l-27 -44l-35 91l-140 90l-117 -21l22 136v120l-24 126l22 115l3 139l-49 73zM672 624l13 -15l-15 -100l12 -121l-5 -93v-135l-13 -98l103 -13l-8 -58l-102 18l-114 -18
l-115 11l22 106l-8 150l6 102l-27 119l7 116l-16 100l25 34l109 -5l141 -7l15 -26zM316 600h2l-5 -93l12 -120l-4 -109l15 -93l3 -118l59 8l8 -79l-99 -3l-134 9l-108 7l-44 16l78 91l-25 109l17 152l-9 119l10 110l-70 80l58 31l128 17l128 -27l18 -22z" />
    <glyph glyph-name="ugrave" unicode="&#x449;" horiz-adv-x="1116" 
d="M776 722l19 -4l112 16l130 -2l54 -47l-77 -78l23 -109l-7 -128l-8 -134l9 -125l45 -57l48 2l-27 -186l-27 -44l-35 91l-140 90l-117 -21l22 136v120l-24 126l22 115l3 139l-49 73zM672 624l13 -15l-15 -100l12 -121l-5 -93v-135l-13 -98l103 -13l-8 -58l-102 18l-114 -18
l-115 11l22 106l-8 150l6 102l-27 119l7 116l-16 100l25 34l109 -5l141 -7l15 -26zM316 600h2l-5 -93l12 -120l-4 -109l15 -93l3 -118l59 8l8 -79l-99 -3l-134 9l-108 7l-44 16l78 91l-25 109l17 152l-9 119l10 110l-70 80l58 31l128 17l128 -27l18 -22z" />
    <glyph glyph-name="uacute" unicode="&#xfa;" horiz-adv-x="810" 
d="M437 611l-2 -4l23 -106l-7 -126l-8 -131l9 -122l-5 -131l-111 2l-153 5l-37 17l73 91l-18 134l-2 101l22 135v120l-24 127l149 -7l130 17l40 -41zM489 376l-4 19l6 42l-6 -3l160 -30l114 -59l18 -114l-42 -128l-72 -81l-174 -25l-14 18l12 44l50 107l5 139zM48 525
l-26 13l22 168l136 5l5 -50l-73 -114l-51 -60z" />
    <glyph glyph-name="uacute" unicode="&#x44a;" horiz-adv-x="810" 
d="M437 611l-2 -4l23 -106l-7 -126l-8 -131l9 -122l-5 -131l-111 2l-153 5l-37 17l73 91l-18 134l-2 101l22 135v120l-24 127l149 -7l130 17l40 -41zM489 376l-4 19l6 42l-6 -3l160 -30l114 -59l18 -114l-42 -128l-72 -81l-174 -25l-14 18l12 44l50 107l5 139zM48 525
l-26 13l22 168l136 5l5 -50l-73 -114l-51 -60z" />
    <glyph glyph-name="ucircumflex" unicode="&#xfb;" horiz-adv-x="1023" 
d="M312 611l21 -7l-23 -119l23 -106l-7 -125l-8 -132l9 -122l-131 -9l-111 2l-70 34l60 70l19 134l-18 136l-2 103l22 139l-54 79l19 35l155 -7l135 17l40 -41zM353 393l15 -26l-8 89l27 -19l126 -27l99 -80l53 -107l-44 -115l-104 -79l-131 -32h-43l7 79l76 74l-14 157z
M682 722l-3 -15l148 26l123 -7l53 -46l-71 -75l15 -124l3 -108l2 -152l-19 -121l54 -79l-25 -21l-147 9l-119 -12l-48 47l54 55l-13 136l22 111l-8 129l5 143l-61 64z" />
    <glyph glyph-name="ucircumflex" unicode="&#x44b;" horiz-adv-x="1023" 
d="M312 611l21 -7l-23 -119l23 -106l-7 -125l-8 -132l9 -122l-131 -9l-111 2l-70 34l60 70l19 134l-18 136l-2 103l22 139l-54 79l19 35l155 -7l135 17l40 -41zM353 393l15 -26l-8 89l27 -19l126 -27l99 -80l53 -107l-44 -115l-104 -79l-131 -32h-43l7 79l76 74l-14 157z
M682 722l-3 -15l148 26l123 -7l53 -46l-71 -75l15 -124l3 -108l2 -152l-19 -121l54 -79l-25 -21l-147 9l-119 -12l-48 47l54 55l-13 136l22 111l-8 129l5 143l-61 64z" />
    <glyph glyph-name="udieresis" unicode="&#xfc;" horiz-adv-x="685" 
d="M312 611l21 -7l-23 -119l23 -106l-7 -125l-8 -132l9 -122l-131 -9l-111 2l-70 34l60 70l19 134l-18 136l-2 103l22 139l-54 79l19 35l155 -7l135 17l40 -41zM353 393l15 -26l-8 89l27 -19l126 -27l99 -80l53 -107l-44 -115l-104 -79l-131 -32h-43l7 79l76 74l-14 157z
" />
    <glyph glyph-name="udieresis" unicode="&#x44c;" horiz-adv-x="685" 
d="M312 611l21 -7l-23 -119l23 -106l-7 -125l-8 -132l9 -122l-131 -9l-111 2l-70 34l60 70l19 134l-18 136l-2 103l22 139l-54 79l19 35l155 -7l135 17l40 -41zM353 393l15 -26l-8 89l27 -19l126 -27l99 -80l53 -107l-44 -115l-104 -79l-131 -32h-43l7 79l76 74l-14 157z
" />
    <glyph glyph-name="yacute" unicode="&#xfd;" horiz-adv-x="658" 
d="M269 735l4 5l-2 -92l-99 -97l-63 -113l-56 62l22 188l32 53l43 -45zM291 53l-16 5l9 -71l-171 68l-36 113l6 43l70 -108zM313 -3l3 4l6 52l35 87l7 100l22 121l-13 114l-11 101l-41 83l-22 71l139 -14l110 -92l48 -98l26 -154l-11 -169l-85 -112l-76 -59zM356 391l-13 28
v-92l-66 -33l-24 -80l-36 56l5 199l21 37l38 -56z" />
    <glyph glyph-name="yacute" unicode="&#x44d;" horiz-adv-x="658" 
d="M269 735l4 5l-2 -92l-99 -97l-63 -113l-56 62l22 188l32 53l43 -45zM291 53l-16 5l9 -71l-171 68l-36 113l6 43l70 -108zM313 -3l3 4l6 52l35 87l7 100l22 121l-13 114l-11 101l-41 83l-22 71l139 -14l110 -92l48 -98l26 -154l-11 -169l-85 -112l-76 -59zM356 391l-13 28
v-92l-66 -33l-24 -80l-36 56l5 199l21 37l38 -56z" />
    <glyph glyph-name="thorn" unicode="&#xfe;" horiz-adv-x="1070" 
d="M61 722l19 -4l112 16l131 -2l54 -46l-78 -79l23 -187l48 -4l-8 -73h-46l-5 -126l14 -115l28 -74l-37 -42l-107 9l-144 12l-45 9l76 95v123l-24 129l22 117l3 142l-65 70zM697 63l-8 -16l22 -74l-136 38l-91 94l-67 96l-29 161l43 133l52 143l102 56l101 31l7 -67l-28 -80
l-13 -101l-11 -113l21 -115l-22 -109zM732 -25l-11 8l24 70l24 77l17 135l-9 101l10 91l-16 116l-34 96l3 78l131 -61l76 -71l59 -115l38 -140l-35 -140l-48 -127l-100 -58z" />
    <glyph glyph-name="thorn" unicode="&#x44e;" horiz-adv-x="1070" 
d="M61 722l19 -4l112 16l131 -2l54 -46l-78 -79l23 -187l48 -4l-8 -73h-46l-5 -126l14 -115l28 -74l-37 -42l-107 9l-144 12l-45 9l76 95v123l-24 129l22 117l3 142l-65 70zM697 63l-8 -16l22 -74l-136 38l-91 94l-67 96l-29 161l43 133l52 143l102 56l101 31l7 -67l-28 -80
l-13 -101l-11 -113l21 -115l-22 -109zM732 -25l-11 8l24 70l24 77l17 135l-9 101l10 91l-16 116l-34 96l3 78l131 -61l76 -71l59 -115l38 -140l-35 -140l-48 -127l-100 -58z" />
    <glyph glyph-name="ydieresis" unicode="&#xff;" horiz-adv-x="737" 
d="M384 393l-9 5l2 -70l-46 -84l-5 -81l-56 -118l-122 -49l-144 105l41 44l32 -19l16 -7l-11 100l169 137v16l-124 39l-51 129l87 128l172 61l46 -5l1 -67l-76 -77l4 -107zM421 96l-17 16l10 102l7 127l-4 138l-18 118l26 110l125 -1l108 1l62 -16l-79 -95l12 -106l-10 -119
l24 -125l-21 -136l56 -75l-28 -43l-153 -2l-123 17l-28 31z" />
    <glyph glyph-name="ydieresis" unicode="&#x44f;" horiz-adv-x="737" 
d="M384 393l-9 5l2 -70l-46 -84l-5 -81l-56 -118l-122 -49l-144 105l41 44l32 -19l16 -7l-11 100l169 137v16l-124 39l-51 129l87 128l172 61l46 -5l1 -67l-76 -77l4 -107zM421 96l-17 16l10 102l7 127l-4 138l-18 118l26 110l125 -1l108 1l62 -16l-79 -95l12 -106l-10 -119
l24 -125l-21 -136l56 -75l-28 -43l-153 -2l-123 17l-28 31z" />
    </font>
</defs>
</svg>
